<?xml version="1.0" encoding="UTF-8" standalone="no"?><!DOCTYPE svg PUBLIC "-//W3C//DTD SVG 1.1//EN" "http://www.w3.org/Graphics/SVG/1.1/DTD/svg11.dtd"><svg width="100%" height="100%" viewBox="0 0 152 44" version="1.1" xmlns="http://www.w3.org/2000/svg" xmlns:xlink="http://www.w3.org/1999/xlink" xml:space="preserve" xmlns:serif="http://www.serif.com/" style="fill-rule:evenodd;clip-rule:evenodd;stroke-linejoin:round;stroke-miterlimit:2;"><path d="M35.98,43.319l-9.74,-0l-11.452,-18.933l-3.299,0l11.249,18.933l-6.668,-0l-11.086,-18.919l-0,18.919l-4.984,-0l-0,-39.727l8.242,15.341l3.241,-0l-11.412,-18.933l14.549,0c4.117,0 7.828,1.125 10.725,2.986l-5.216,3.898c-1.508,-0.91 -3.421,-1.431 -5.509,-1.431l-4.29,0l7.827,12.916c3.247,-0.997 5.509,-3.424 5.509,-6.198c-0,-1.603 -0.529,-2.781 -1.804,-3.908l5.156,-3.856c2.605,2.122 3.885,4.644 3.885,7.764c-0,4.985 -3.995,9.272 -9.731,11.176l9.136,15.15l13.003,-38.497l8.749,0l11.365,33.647l0,-29.247l22.487,16.81c0.192,2.211 -0.29,4.479 -0.87,6.299l-14.379,-10.789l-0,21.189l4.58,-0c4.001,-0 6.9,-2.687 8.234,-4.29c2.667,-3.12 4.116,-7.41 4.116,-11.96c0,-4.549 -1.449,-8.839 -4.116,-11.959c-1.334,-1.603 -4.233,-4.29 -8.234,-4.29l-4.29,0l-0,2.037l-7.18,-5.373l-0,-2.074l11.47,0c5.566,0 10.669,2.424 14.319,6.797c2.954,3.485 4.696,7.91 5.113,12.63l6.561,-19.427l8.75,0l12.181,36.064l7.669,-12.717c-5.736,-1.904 -9.731,-6.191 -9.731,-11.176c0,-3.12 1.241,-5.85 3.846,-7.972l5.156,3.856c-1.275,1.127 -1.764,2.513 -1.764,4.116c-0,2.774 2.261,5.201 5.508,6.198l7.827,-12.916l-4.29,0c-2.088,0 -4.001,0.521 -5.509,1.431l-5.215,-3.898c2.896,-1.861 6.607,-2.986 10.724,-2.986l14.833,0l-11.412,18.933l3.293,-0l8.119,-13.596l-0,37.982l-5.53,-0l0.1,-18.52l-10.853,18.52l-6.309,-0l11.027,-18.933l-3.152,0l-11.452,18.933l-10.604,-0l-9.097,-6.801l-2.231,6.801l-6.596,0.012l9.198,-27.195l3.044,9.966l-1.387,4.221l7.475,5.588l-9.214,-27.291l-11.734,34.699l-7.301,-0l1.9,-5.627c-3.547,3.633 -8.214,5.627 -13.262,5.627l-18.721,-0l-9.097,-6.801l-2.293,6.801l-6.436,0.012l8.997,-26.785l3.226,9.111l-1.466,4.666l7.475,5.588l-9.213,-27.291l-11.735,34.699Z" style="fill:#fff;"/><path d="M35.98,43.319l-9.74,-0l-11.452,-18.933l-3.299,0l11.249,18.933l-6.668,-0l-11.086,-18.919l-0,18.919l-4.984,-0l-0,-39.727l8.242,15.341l3.241,-0l-11.412,-18.933l14.549,0c4.117,0 7.828,1.125 10.725,2.986l-5.216,3.898c-1.508,-0.91 -3.421,-1.431 -5.509,-1.431l-4.29,0l7.827,12.916c3.247,-0.997 5.509,-3.424 5.509,-6.198c-0,-1.603 -0.529,-2.781 -1.804,-3.908l5.156,-3.856c2.605,2.122 3.885,4.644 3.885,7.764c-0,4.985 -3.995,9.272 -9.731,11.176l9.136,15.15l13.003,-38.497l8.749,0l11.365,33.647l0,-29.247l22.487,16.81c0.192,2.211 -0.29,4.479 -0.87,6.299l-14.379,-10.789l-0,21.189l4.58,-0c4.001,-0 6.9,-2.687 8.234,-4.29c2.667,-3.12 4.116,-7.41 4.116,-11.96c0,-4.549 -1.449,-8.839 -4.116,-11.959c-1.334,-1.603 -4.233,-4.29 -8.234,-4.29l-4.29,0l-0,2.037l-7.18,-5.373l-0,-2.074l11.47,0c5.566,0 10.669,2.424 14.319,6.797c2.954,3.485 4.696,7.91 5.113,12.63l6.561,-19.427l8.75,0l12.181,36.064l7.669,-12.717c-5.736,-1.904 -9.731,-6.191 -9.731,-11.176c0,-3.12 1.241,-5.85 3.846,-7.972l5.156,3.856c-1.275,1.127 -1.764,2.513 -1.764,4.116c-0,2.774 2.261,5.201 5.508,6.198l7.827,-12.916l-4.29,0c-2.088,0 -4.001,0.521 -5.509,1.431l-5.215,-3.898c2.896,-1.861 6.607,-2.986 10.724,-2.986l14.833,0l-11.412,18.933l3.293,-0l8.119,-13.596l-0,37.982l-5.53,-0l0.1,-18.52l-10.853,18.52l-6.309,-0l11.027,-18.933l-3.152,0l-11.452,18.933l-10.604,-0l-9.097,-6.801l-2.231,6.801l-6.596,0.012l9.198,-27.195l3.044,9.966l-1.387,4.221l7.475,5.588l-9.214,-27.291l-11.734,34.699l-7.301,-0l1.9,-5.627c-3.547,3.633 -8.214,5.627 -13.262,5.627l-18.721,-0l-9.097,-6.801l-2.293,6.801l-6.436,0.012l8.997,-26.785l3.226,9.111l-1.466,4.666l7.475,5.588l-9.213,-27.291l-11.735,34.699Zm-0.172,-0.24l11.679,-34.536l0.455,0.001l9.213,27.29l-0.371,0.269l-7.611,-5.69l1.493,-4.751l-2.967,-8.38l-8.669,25.808c-0,0 5.93,-0.011 5.93,-0.011l2.343,-6.952c0,0 9.299,6.952 9.299,6.952l18.641,-0c4.983,-0 9.589,-1.968 13.091,-5.554l0.399,0.244c-0,0 -1.794,5.31 -1.794,5.31l6.795,-0l11.679,-34.536l0.455,0.001l9.213,27.29l-0.371,0.269l-7.613,-5.691l1.417,-4.312l-2.804,-9.18l-8.852,26.17l6.088,-0.011l2.281,-6.954l9.301,6.954l10.389,-0l11.451,-18.933l3.288,0l0.207,0.361l-10.817,18.572l5.755,-0l10.783,-18.401l0.447,0.122l-0.099,18.279c0,-0 5.049,-0 5.049,-0l-0,-36.872l-7.742,12.966l-3.43,-0l-0.206,-0.364c0,-0 11.193,-18.569 11.193,-18.569l-14.408,0c-3.929,0 -7.484,1.036 -10.3,2.764c-0,-0 4.807,3.592 4.807,3.592c1.519,-0.88 3.422,-1.383 5.493,-1.383l4.29,0l0.206,0.365l-7.925,13.076l-0.179,-0.055c-3.358,-1.031 -5.677,-3.559 -5.677,-6.428c-0,-1.58 0.458,-2.957 1.63,-4.097c-0,0 -4.774,-3.57 -4.774,-3.57c-2.447,2.056 -3.614,4.678 -3.614,7.667c0,4.891 3.939,9.08 9.566,10.949l0.285,0.094l-7.823,12.974l-0.433,-0.047l-12.126,-35.901c-0,0 -8.405,-0 -8.405,0l-6.507,19.264l-0.466,-0.056c-0.413,-4.67 -2.135,-9.048 -5.058,-12.497l-0.001,-0.001c-3.603,-4.316 -8.639,-6.71 -14.134,-6.71l-11.23,0c-0,0 -0,1.714 -0,1.714c-0,-0 6.7,5.013 6.7,5.013l-0,-1.797l4.53,0c4.088,0 7.054,2.737 8.417,4.375c2.701,3.161 4.173,7.505 4.173,12.114c0,4.609 -1.472,8.954 -4.173,12.115c-1.363,1.638 -4.329,4.375 -8.417,4.375l-4.82,-0l-0,-21.429l0.384,-0.192c-0,-0 14.107,10.585 14.107,10.585c0.516,-1.704 0.923,-3.76 0.767,-5.775l-22.016,-16.459l0,28.768l-0.467,0.077l-11.31,-33.484c0,0 -8.405,-0 -8.405,-0l-12.948,38.334l-0.433,0.047l-9.29,-15.407l0.285,-0.094c5.627,-1.869 9.566,-6.058 9.566,-10.949c-0,-2.988 -1.206,-5.412 -3.653,-7.459c0,0 -4.773,3.569 -4.773,3.57c1.178,1.119 1.669,2.306 1.669,3.889c-0,2.869 -2.32,5.397 -5.678,6.428l-0.179,0.055l-7.925,-13.076l0.206,-0.365l4.29,0c2.071,0 3.974,0.503 5.493,1.383c0,-0 4.808,-3.592 4.808,-3.592c-2.817,-1.728 -6.372,-2.764 -10.301,-2.764l-14.124,0l11.192,18.569l-0.205,0.364l-3.384,-0l-7.859,-14.627l-0,38.533l4.504,-0l-0,-18.679l0.447,-0.121l11.016,18.8c0,-0 6.109,-0 6.109,-0l-11.033,-18.57l0.206,-0.363l3.434,0l11.452,18.933l9.433,-0Z" style="fill:#fff;"/></svg>