<?xml version="1.0" encoding="UTF-8" standalone="no"?><!DOCTYPE svg PUBLIC "-//W3C//DTD SVG 1.1//EN" "http://www.w3.org/Graphics/SVG/1.1/DTD/svg11.dtd"><svg width="100%" height="100%" viewBox="0 0 45 13" version="1.1" xmlns="http://www.w3.org/2000/svg" xmlns:xlink="http://www.w3.org/1999/xlink" xml:space="preserve" xmlns:serif="http://www.serif.com/" style="fill-rule:evenodd;clip-rule:evenodd;stroke-linejoin:round;stroke-miterlimit:2;"><path d="M10.49,12.504l-2.84,0l-3.339,-5.465l-0.961,0l3.279,5.465l-1.944,0l-3.232,-5.461l-0,5.461l-1.453,0l-0,-11.467l2.403,4.428l0.945,0l-3.327,-5.465l4.241,0c1.201,0 2.283,0.325 3.127,0.862l-1.521,1.125c-0.439,-0.263 -0.997,-0.413 -1.606,-0.413l-1.25,0l2.282,3.728c0.946,-0.287 1.606,-0.988 1.606,-1.789c-0,-0.463 -0.154,-0.803 -0.526,-1.128l1.503,-1.113c0.759,0.613 1.133,1.341 1.133,2.241c-0,1.439 -1.165,2.677 -2.837,3.226l2.663,4.373l3.791,-11.112l2.551,0l3.313,9.712l0,-8.442l6.556,4.852c0.056,0.639 -0.085,1.293 -0.254,1.819l-4.192,-3.115l0,6.117l1.336,-0c1.166,-0 2.011,-0.776 2.4,-1.239c0.778,-0.9 1.2,-2.139 1.2,-3.452c0,-1.313 -0.422,-2.552 -1.2,-3.452c-0.389,-0.463 -1.234,-1.238 -2.4,-1.238l-1.251,-0l-0,0.588l-2.093,-1.551l-0,-0.599l3.344,0c1.622,0 3.11,0.7 4.174,1.962c0.861,1.006 1.369,2.283 1.491,3.646l1.913,-5.608l2.551,0l3.551,10.41l2.236,-3.671c-1.672,-0.549 -2.837,-1.787 -2.837,-3.226c-0,-0.9 0.362,-1.688 1.121,-2.301l1.503,1.113c-0.371,0.325 -0.514,0.725 -0.514,1.188c-0,0.801 0.659,1.502 1.606,1.789l2.282,-3.728l-1.251,0c-0.609,0 -1.166,0.15 -1.606,0.413l-1.521,-1.125c0.845,-0.537 1.927,-0.862 3.127,-0.862l4.324,0l-3.327,5.465l0.961,0l2.366,-3.924l0,10.963l-1.612,0l0.029,-5.346l-3.164,5.346l-1.839,0l3.215,-5.465l-0.919,0l-3.339,5.465l-3.091,0l-2.653,-1.963l-0.65,1.963l-1.923,0.004l2.682,-7.85l0.887,2.877l-0.404,1.218l2.179,1.613l-2.686,-7.878l-3.421,10.016l-2.129,0l0.554,-1.624c-1.034,1.049 -2.395,1.624 -3.866,1.624l-5.458,0l-2.653,-1.963l-0.668,1.963l-1.877,0.004l2.624,-7.732l0.94,2.63l-0.427,1.347l2.179,1.613l-2.686,-7.878l-3.421,10.016Z" style="fill:#04303a;"/></svg>