<?xml version="1.0" encoding="UTF-8" standalone="no"?><!DOCTYPE svg PUBLIC "-//W3C//DTD SVG 1.1//EN" "http://www.w3.org/Graphics/SVG/1.1/DTD/svg11.dtd"><svg width="100%" height="100%" viewBox="0 0 18 22" version="1.1" xmlns="http://www.w3.org/2000/svg" xmlns:xlink="http://www.w3.org/1999/xlink" xml:space="preserve" xmlns:serif="http://www.serif.com/" style="fill-rule:evenodd;clip-rule:evenodd;stroke-linejoin:round;stroke-miterlimit:2;"><path d="M15.461,20.055l-3.313,-0l-5.302,-8.765l-1.527,-0l5.208,8.765l-3.087,-0l-5.133,-8.759l0,8.759l-2.307,-0l0,-18.392l3.816,7.102l1.5,0l-5.283,-8.765l6.736,0c1.906,0 3.623,0.521 4.964,1.383l-2.414,1.804c-0.698,-0.421 -1.584,-0.662 -2.55,-0.662l-1.987,-0l3.624,5.979c1.503,-0.461 2.55,-1.585 2.55,-2.869c0,-0.743 -0.244,-1.288 -0.835,-1.81l2.387,-1.785c1.206,0.983 1.799,2.15 1.799,3.595c-0,2.307 -1.85,4.292 -4.505,5.174l4.229,7.014l1.43,2.232Z" style="fill:#fff;"/><path d="M17.003,21.228l-3.433,-0l-5.493,-9.083l-1.583,-0l5.397,9.083l-3.199,-0l-5.319,-9.076l0,9.076l-2.391,-0l0,-19.058l3.955,7.359l1.554,-0l-5.475,-9.083l6.98,0c1.975,0 3.755,0.54 5.145,1.433l-2.502,1.87c-0.723,-0.437 -1.641,-0.687 -2.643,-0.687l-2.058,0l3.755,6.196c1.558,-0.478 2.643,-1.642 2.643,-2.973c-0,-0.769 -0.254,-1.334 -0.866,-1.875l2.474,-1.85c1.25,1.018 1.864,2.228 1.864,3.725c-0,2.391 -1.917,4.448 -4.669,5.362l4.383,7.267l1.481,2.314Z" style="fill:#fff;fill-opacity:0.08;"/></svg>