<?xml version="1.0" encoding="UTF-8" standalone="no"?><!DOCTYPE svg PUBLIC "-//W3C//DTD SVG 1.1//EN" "http://www.w3.org/Graphics/SVG/1.1/DTD/svg11.dtd"><svg width="100%" height="100%" viewBox="0 0 8 8" version="1.1" xmlns="http://www.w3.org/2000/svg" xmlns:xlink="http://www.w3.org/1999/xlink" xml:space="preserve" xmlns:serif="http://www.serif.com/" style="fill-rule:evenodd;clip-rule:evenodd;stroke-linejoin:round;stroke-miterlimit:2;"><rect id="Artboard17" x="0" y="0" width="7.2" height="7.2" style="fill:none;"/><path d="M7.2,3.6c0,-0.318 -0.091,-0.629 -0.262,-0.898c-0.168,-0.269 -0.41,-0.484 -0.698,-0.62l0,-0.042c0,-0.309 -0.101,-0.61 -0.286,-0.858c-0.184,-0.248 -0.444,-0.431 -0.739,-0.52c-0.295,-0.089 -0.612,-0.08 -0.905,0.025c-0.29,0.105 -0.54,0.301 -0.71,0.558c-0.17,-0.257 -0.42,-0.453 -0.71,-0.558c-0.293,-0.105 -0.61,-0.114 -0.905,-0.025c-0.295,0.089 -0.555,0.272 -0.739,0.52c-0.185,0.248 -0.286,0.549 -0.286,0.858l0,0.042c-0.288,0.136 -0.53,0.351 -0.701,0.62c-0.17,0.268 -0.259,0.58 -0.259,0.898c0,0.318 0.089,0.629 0.259,0.898c0.171,0.268 0.413,0.483 0.701,0.62l0,0.042c0,0.309 0.101,0.61 0.286,0.858c0.184,0.248 0.444,0.431 0.739,0.52c0.295,0.089 0.612,0.08 0.905,-0.025c0.29,-0.105 0.54,-0.301 0.71,-0.558c0.17,0.257 0.42,0.453 0.71,0.558c0.293,0.105 0.61,0.114 0.905,0.025c0.295,-0.089 0.555,-0.272 0.739,-0.52c0.185,-0.248 0.286,-0.549 0.286,-0.858l0,-0.042c0.288,-0.137 0.53,-0.352 0.698,-0.62c0.171,-0.269 0.262,-0.58 0.262,-0.898Zm-4.8,2.52c-0.238,0 -0.466,-0.088 -0.641,-0.246c-0.177,-0.158 -0.288,-0.375 -0.314,-0.611c0.079,0.011 0.156,0.017 0.235,0.017l0.24,0c0.065,0 0.125,-0.025 0.17,-0.07c0.044,-0.045 0.07,-0.106 0.07,-0.17c0,-0.064 -0.026,-0.125 -0.07,-0.17c-0.045,-0.045 -0.105,-0.07 -0.17,-0.07l-0.24,0c-0.283,0 -0.557,-0.1 -0.775,-0.282c-0.216,-0.183 -0.36,-0.436 -0.408,-0.715c-0.048,-0.279 0.005,-0.567 0.146,-0.811c0.144,-0.244 0.37,-0.43 0.636,-0.524c0.048,-0.016 0.089,-0.047 0.118,-0.088c0.029,-0.04 0.043,-0.088 0.043,-0.138l0,-0.202c0,-0.255 0.101,-0.499 0.281,-0.679c0.18,-0.18 0.425,-0.281 0.679,-0.281c0.254,0 0.499,0.101 0.679,0.281c0.18,0.18 0.281,0.424 0.281,0.679l0,2.048c-0.264,-0.237 -0.605,-0.368 -0.96,-0.368c-0.065,0 -0.125,0.025 -0.17,0.07c-0.044,0.045 -0.07,0.106 -0.07,0.17c0,0.064 0.026,0.125 0.07,0.17c0.045,0.045 0.105,0.07 0.17,0.07c0.254,0 0.499,0.101 0.679,0.281c0.18,0.18 0.281,0.424 0.281,0.679c0,0.255 -0.101,0.499 -0.281,0.679c-0.18,0.18 -0.425,0.281 -0.679,0.281Zm3.12,-1.32l-0.24,0c-0.065,0 -0.125,0.025 -0.17,0.07c-0.044,0.045 -0.07,0.106 -0.07,0.17c0,0.064 0.026,0.125 0.07,0.17c0.045,0.045 0.105,0.07 0.17,0.07l0.24,0c0.079,0 0.156,-0.006 0.235,-0.017c-0.021,0.185 -0.093,0.359 -0.211,0.503c-0.118,0.144 -0.274,0.251 -0.449,0.308c-0.177,0.057 -0.367,0.061 -0.545,0.013c-0.18,-0.049 -0.34,-0.148 -0.465,-0.286c-0.123,-0.138 -0.204,-0.309 -0.233,-0.492c-0.029,-0.183 -0.005,-0.371 0.072,-0.54c0.074,-0.17 0.197,-0.313 0.353,-0.414c0.156,-0.101 0.338,-0.155 0.523,-0.155c0.065,0 0.125,-0.025 0.17,-0.07c0.044,-0.045 0.07,-0.106 0.07,-0.17c0,-0.064 -0.026,-0.125 -0.07,-0.17c-0.045,-0.045 -0.105,-0.07 -0.17,-0.07c-0.355,-0 -0.696,0.131 -0.96,0.368l0,-2.048c0,-0.255 0.101,-0.499 0.281,-0.679c0.18,-0.18 0.425,-0.281 0.679,-0.281c0.254,0 0.499,0.101 0.679,0.281c0.18,0.18 0.281,0.424 0.281,0.679l0,0.202c0,0.05 0.014,0.098 0.043,0.138c0.029,0.041 0.07,0.072 0.118,0.088c0.266,0.094 0.492,0.28 0.636,0.524c0.141,0.244 0.194,0.532 0.146,0.811c-0.048,0.279 -0.192,0.532 -0.408,0.715c-0.218,0.182 -0.492,0.282 -0.775,0.282Zm0.48,-1.56c0,0.064 -0.026,0.125 -0.07,0.17c-0.045,0.045 -0.105,0.07 -0.17,0.07l-0.12,0c-0.286,0 -0.562,-0.114 -0.763,-0.316c-0.204,-0.203 -0.317,-0.478 -0.317,-0.764l0,-0.12c0,-0.064 0.026,-0.125 0.07,-0.17c0.045,-0.045 0.105,-0.07 0.17,-0.07c0.065,0 0.125,0.025 0.17,0.07c0.044,0.045 0.07,0.106 0.07,0.17l0,0.12c0,0.159 0.062,0.312 0.175,0.424c0.113,0.113 0.267,0.176 0.425,0.176l0.12,0c0.065,0 0.125,0.025 0.17,0.07c0.044,0.045 0.07,0.106 0.07,0.17Zm-4.44,0.24l-0.12,0c-0.065,0 -0.125,-0.025 -0.17,-0.07c-0.044,-0.045 -0.07,-0.106 -0.07,-0.17c0,-0.064 0.026,-0.125 0.07,-0.17c0.045,-0.045 0.105,-0.07 0.17,-0.07l0.12,0c0.158,0 0.312,-0.063 0.425,-0.176c0.113,-0.112 0.175,-0.265 0.175,-0.424l0,-0.12c0,-0.064 0.026,-0.125 0.07,-0.17c0.045,-0.045 0.105,-0.07 0.17,-0.07c0.065,0 0.125,0.025 0.17,0.07c0.044,0.045 0.07,0.106 0.07,0.17l0,0.12c0,0.286 -0.113,0.561 -0.317,0.764c-0.201,0.202 -0.477,0.316 -0.763,0.316Z" style="fill:#fff;fill-rule:nonzero;"/><g id="g523"></g><g id="g5231" serif:id="g523"></g><g id="g213"></g><g id="g241"></g><g id="g297"></g><g id="g327"></g><g id="g364"></g><g id="g392"></g></svg>