<?xml version="1.0" encoding="UTF-8" standalone="no"?><!DOCTYPE svg PUBLIC "-//W3C//DTD SVG 1.1//EN" "http://www.w3.org/Graphics/SVG/1.1/DTD/svg11.dtd"><svg width="100%" height="100%" viewBox="0 0 8 8" version="1.1" xmlns="http://www.w3.org/2000/svg" xmlns:xlink="http://www.w3.org/1999/xlink" xml:space="preserve" xmlns:serif="http://www.serif.com/" style="fill-rule:evenodd;clip-rule:evenodd;stroke-linejoin:round;stroke-miterlimit:2;"><rect id="Artboard19" x="0" y="0" width="7.2" height="7.2" style="fill:none;"/><path d="M6.385,0.994l-0,4.32c-0,0.127 -0.051,0.249 -0.141,0.339c-0.09,0.09 -0.212,0.141 -0.339,0.141l-2.16,-0c-0.064,-0 -0.125,-0.025 -0.17,-0.071c-0.045,-0.044 -0.07,-0.106 -0.07,-0.169c-0,-0.064 0.025,-0.125 0.07,-0.17c0.045,-0.045 0.106,-0.07 0.17,-0.07l2.16,-0l-0,-4.32l-5.28,-0l-0,1.2c-0,0.063 -0.026,0.125 -0.071,0.169c-0.045,0.046 -0.106,0.071 -0.169,0.071c-0.064,-0 -0.125,-0.025 -0.17,-0.071c-0.045,-0.044 -0.07,-0.106 -0.07,-0.169l-0,-1.2c-0,-0.127 0.05,-0.25 0.14,-0.34c0.09,-0.09 0.212,-0.14 0.34,-0.14l5.28,-0c0.127,-0 0.249,0.05 0.339,0.14c0.09,0.09 0.141,0.213 0.141,0.34Zm-6,3.84c-0.064,-0 -0.125,0.025 -0.17,0.07c-0.045,0.045 -0.07,0.106 -0.07,0.17c-0,0.063 0.025,0.125 0.07,0.169c0.045,0.046 0.106,0.071 0.17,0.071c0.063,-0 0.124,0.025 0.169,0.07c0.045,0.045 0.071,0.106 0.071,0.17c-0,0.063 0.025,0.125 0.07,0.169c0.045,0.046 0.106,0.071 0.17,0.071c0.063,-0 0.124,-0.025 0.169,-0.071c0.045,-0.044 0.071,-0.106 0.071,-0.169c-0,-0.191 -0.076,-0.374 -0.211,-0.509c-0.135,-0.135 -0.318,-0.211 -0.509,-0.211Zm-0,-0.96c-0.064,-0 -0.125,0.025 -0.17,0.07c-0.045,0.045 -0.07,0.106 -0.07,0.17c-0,0.063 0.025,0.125 0.07,0.169c0.045,0.046 0.106,0.071 0.17,0.071c0.318,-0 0.623,0.126 0.848,0.351c0.225,0.225 0.352,0.531 0.352,0.849c-0,0.063 0.025,0.125 0.07,0.169c0.045,0.046 0.106,0.071 0.17,0.071c0.063,-0 0.124,-0.025 0.169,-0.071c0.045,-0.044 0.071,-0.106 0.071,-0.169c-0.001,-0.446 -0.178,-0.873 -0.493,-1.188c-0.315,-0.315 -0.742,-0.492 -1.187,-0.492Zm-0,-0.96c-0.064,-0 -0.125,0.025 -0.17,0.07c-0.045,0.045 -0.07,0.106 -0.07,0.17c-0,0.063 0.025,0.125 0.07,0.169c0.045,0.046 0.106,0.071 0.17,0.071c0.572,0 1.121,0.228 1.526,0.633c0.405,0.405 0.633,0.954 0.634,1.527c-0,0.063 0.025,0.125 0.07,0.169c0.045,0.046 0.106,0.071 0.17,0.071c0.063,-0 0.124,-0.025 0.169,-0.071c0.045,-0.044 0.071,-0.106 0.071,-0.169c-0.001,-0.7 -0.279,-1.371 -0.774,-1.866c-0.495,-0.495 -1.166,-0.774 -1.866,-0.774Z" style="fill:#fff;fill-rule:nonzero;"/><g id="g523"></g><g id="g5231" serif:id="g523"></g><g id="g213"></g><g id="g241"></g><g id="g297"></g><g id="g327"></g><g id="g364"></g><g id="g392"></g></svg>