<?xml version="1.0" encoding="UTF-8" standalone="no"?><!DOCTYPE svg PUBLIC "-//W3C//DTD SVG 1.1//EN" "http://www.w3.org/Graphics/SVG/1.1/DTD/svg11.dtd"><svg width="100%" height="100%" viewBox="-0.1 -1 8 8" version="1.1" xmlns="http://www.w3.org/2000/svg" xmlns:xlink="http://www.w3.org/1999/xlink" xml:space="preserve" xmlns:serif="http://www.serif.com/" style="fill-rule:evenodd;clip-rule:evenodd;stroke-linejoin:round;stroke-miterlimit:2;"><rect id="Artboard19" x="0" y="0" width="7.2" height="7.2" style="fill:none;"/><path d="M6.861,1.013l0,3.12c0,0.127 -0.05,0.249 -0.142,0.34c-0.088,0.09 -0.211,0.14 -0.338,0.14l-3.262,0l0.312,0.31c0.022,0.023 0.039,0.049 0.051,0.078c0.012,0.029 0.019,0.061 0.019,0.092c0,0.032 -0.007,0.063 -0.019,0.092c-0.012,0.029 -0.029,0.056 -0.051,0.078c-0.024,0.022 -0.05,0.04 -0.079,0.052c-0.029,0.012 -0.06,0.018 -0.091,0.018c-0.031,0 -0.062,-0.006 -0.091,-0.018c-0.029,-0.012 -0.055,-0.03 -0.079,-0.052l-0.72,-0.72c-0.022,-0.022 -0.039,-0.049 -0.051,-0.078c-0.012,-0.029 -0.019,-0.06 -0.019,-0.092c0,-0.031 0.007,-0.063 0.019,-0.092c0.012,-0.029 0.029,-0.055 0.051,-0.078l0.72,-0.72c0.045,-0.045 0.105,-0.07 0.17,-0.07c0.065,-0 0.125,0.025 0.17,0.07c0.046,0.045 0.07,0.106 0.07,0.17c0,0.064 -0.024,0.125 -0.07,0.17l-0.312,0.31l3.262,0l0,-3.12l-3.36,0l0,0.24c0,0.064 -0.026,0.125 -0.07,0.17c-0.045,0.045 -0.105,0.07 -0.17,0.07c-0.065,0 -0.125,-0.025 -0.17,-0.07c-0.044,-0.045 -0.07,-0.106 -0.07,-0.17l0,-0.24c0,-0.127 0.05,-0.249 0.142,-0.339c0.088,-0.09 0.211,-0.141 0.338,-0.141l3.36,0c0.127,0 0.25,0.051 0.338,0.141c0.092,0.09 0.142,0.212 0.142,0.339Zm-1.68,4.32c-0.065,0 -0.125,0.025 -0.17,0.07c-0.044,0.045 -0.07,0.106 -0.07,0.17l0,0.24l-3.36,0l0,-3.12l3.262,0l-0.312,0.31c-0.046,0.045 -0.07,0.106 -0.07,0.17c0,0.064 0.024,0.125 0.07,0.17c0.045,0.045 0.105,0.07 0.17,0.07c0.065,0 0.125,-0.025 0.17,-0.07l0.72,-0.72c0.022,-0.022 0.039,-0.049 0.051,-0.078c0.012,-0.029 0.019,-0.06 0.019,-0.092c0,-0.031 -0.007,-0.063 -0.019,-0.092c-0.012,-0.029 -0.029,-0.055 -0.051,-0.078l-0.72,-0.72c-0.045,-0.045 -0.105,-0.07 -0.17,-0.07c-0.065,-0 -0.125,0.025 -0.17,0.07c-0.046,0.045 -0.07,0.106 -0.07,0.17c0,0.064 0.024,0.125 0.07,0.17l0.312,0.31l-3.262,0c-0.127,0 -0.25,0.051 -0.338,0.141c-0.092,0.09 -0.142,0.212 -0.142,0.339l0,3.12c0,0.127 0.05,0.249 0.142,0.34c0.088,0.09 0.211,0.14 0.338,0.14l3.36,0c0.127,0 0.25,-0.05 0.338,-0.14c0.092,-0.091 0.142,-0.213 0.142,-0.34l0,-0.24c0,-0.064 -0.026,-0.125 -0.07,-0.17c-0.045,-0.045 -0.105,-0.07 -0.17,-0.07Z" style="fill:#fff;fill-rule:nonzero;"/><g id="g523"></g><g id="g5231" serif:id="g523"></g><g id="g213"></g><g id="g241"></g><g id="g297"></g><g id="g327"></g><g id="g364"></g><g id="g392"></g></svg>