<?xml version="1.0" encoding="UTF-8" standalone="no"?><!DOCTYPE svg PUBLIC "-//W3C//DTD SVG 1.1//EN" "http://www.w3.org/Graphics/SVG/1.1/DTD/svg11.dtd"><svg width="100%" height="100%" viewBox="0 0 8 8" version="1.1" xmlns="http://www.w3.org/2000/svg" xmlns:xlink="http://www.w3.org/1999/xlink" xml:space="preserve" xmlns:serif="http://www.serif.com/" style="fill-rule:evenodd;clip-rule:evenodd;stroke-linejoin:round;stroke-miterlimit:2;"><rect id="Artboard20" x="0" y="0" width="7.2" height="7.2" style="fill:none;"/><path d="M5.28,1.08l-3.36,-0c-0.445,0 -0.872,0.178 -1.188,0.492c-0.314,0.316 -0.492,0.743 -0.492,1.188l-0,2.88c-0,0.127 0.051,0.249 0.141,0.339c0.09,0.09 0.212,0.141 0.339,0.141l5.76,-0c0.127,-0 0.249,-0.051 0.339,-0.141c0.09,-0.09 0.141,-0.212 0.141,-0.339l-0,-2.88c-0,-0.445 -0.178,-0.872 -0.492,-1.188c-0.316,-0.314 -0.743,-0.492 -1.188,-0.492Zm1.2,1.68l-0,0.24l-0.96,-0l-0,-1.416c0.271,0.056 0.514,0.203 0.689,0.417c0.175,0.214 0.271,0.483 0.271,0.759Zm-2.64,1.2l-0.48,-0l-0,-0.96l0.48,-0l-0,0.96Zm-0.72,0.48l0.96,-0c0.064,-0 0.125,-0.025 0.17,-0.07c0.045,-0.045 0.07,-0.106 0.07,-0.17l-0,-0.72l0.72,-0l-0,2.16l-2.88,-0l-0,-2.16l0.72,-0l-0,0.72c-0,0.064 0.025,0.125 0.07,0.17c0.045,0.045 0.106,0.07 0.17,0.07Zm1.2,-1.44l-0,-0.24c-0,-0.064 -0.025,-0.125 -0.07,-0.17c-0.045,-0.045 -0.106,-0.07 -0.17,-0.07l-0.96,-0c-0.064,-0 -0.125,0.025 -0.17,0.07c-0.045,0.045 -0.07,0.106 -0.07,0.17l-0,0.24l-0.72,-0l-0,-1.44l2.88,-0l-0,1.44l-0.72,-0Zm-2.64,-1.416l-0,1.416l-0.96,-0l-0,-0.24c0,-0.276 0.096,-0.545 0.271,-0.759c0.175,-0.214 0.418,-0.361 0.689,-0.417Zm-0.96,1.896l0.96,-0l-0,2.16l-0.96,-0l-0,-2.16Zm5.76,2.16l-0.96,-0l-0,-2.16l0.96,-0l-0,2.16Z" style="fill:#fff;fill-rule:nonzero;"/><g id="g523"></g><g id="g5231" serif:id="g523"></g><g id="g213"></g><g id="g241"></g><g id="g297"></g><g id="g327"></g><g id="g364"></g><g id="g392"></g></svg>