<?xml version="1.0" encoding="UTF-8" standalone="no"?><!DOCTYPE svg PUBLIC "-//W3C//DTD SVG 1.1//EN" "http://www.w3.org/Graphics/SVG/1.1/DTD/svg11.dtd"><svg width="100%" height="100%" viewBox="-0.8 -1 9 9" version="1.1" xmlns="http://www.w3.org/2000/svg" xmlns:xlink="http://www.w3.org/1999/xlink" xml:space="preserve" xmlns:serif="http://www.serif.com/" style="fill-rule:evenodd;clip-rule:evenodd;stroke-linejoin:round;stroke-miterlimit:2;"><rect id="Artboard9" x="-0" y="0" width="7.2" height="7.2" style="fill:none;"/><path d="M1.681,2.909l0,-1.949c0,-0.065 -0.026,-0.125 -0.069,-0.17c-0.046,-0.044 -0.106,-0.07 -0.171,-0.07c-0.065,-0 -0.125,0.026 -0.17,0.07c-0.043,0.045 -0.07,0.105 -0.07,0.17l0,1.949c-0.206,0.055 -0.389,0.175 -0.521,0.343c-0.129,0.168 -0.201,0.374 -0.201,0.588c-0,0.214 0.072,0.42 0.201,0.588c0.132,0.168 0.315,0.288 0.521,0.343l0,1.469c0,0.065 0.027,0.125 0.07,0.17c0.045,0.044 0.105,0.07 0.17,0.07c0.065,-0 0.125,-0.026 0.171,-0.07c0.043,-0.045 0.069,-0.105 0.069,-0.17l0,-1.469c0.207,-0.055 0.389,-0.175 0.521,-0.343c0.13,-0.168 0.202,-0.374 0.202,-0.588c-0,-0.214 -0.072,-0.42 -0.202,-0.588c-0.132,-0.168 -0.314,-0.288 -0.521,-0.343Zm-0.24,1.411c-0.096,-0 -0.187,-0.029 -0.266,-0.082c-0.079,-0.052 -0.142,-0.127 -0.178,-0.213c-0.036,-0.089 -0.045,-0.185 -0.026,-0.279c0.019,-0.093 0.065,-0.177 0.132,-0.244c0.067,-0.068 0.151,-0.113 0.245,-0.132c0.093,-0.02 0.189,-0.01 0.278,0.026c0.086,0.036 0.161,0.098 0.214,0.178c0.052,0.079 0.081,0.17 0.081,0.266c0,0.127 -0.05,0.25 -0.141,0.338c-0.089,0.092 -0.212,0.142 -0.339,0.142Zm2.4,-2.851l0,-0.509c0,-0.065 -0.026,-0.125 -0.069,-0.17c-0.046,-0.044 -0.106,-0.07 -0.171,-0.07c-0.065,-0 -0.125,0.026 -0.17,0.07c-0.043,0.045 -0.07,0.105 -0.07,0.17l0,0.509c-0.206,0.055 -0.389,0.175 -0.521,0.343c-0.129,0.168 -0.201,0.374 -0.201,0.588c-0,0.214 0.072,0.42 0.201,0.588c0.132,0.168 0.315,0.288 0.521,0.343l0,2.909c0,0.065 0.027,0.125 0.07,0.17c0.045,0.044 0.105,0.07 0.17,0.07c0.065,-0 0.125,-0.026 0.171,-0.07c0.043,-0.045 0.069,-0.105 0.069,-0.17l0,-2.909c0.207,-0.055 0.389,-0.175 0.521,-0.343c0.13,-0.168 0.202,-0.374 0.202,-0.588c-0,-0.214 -0.072,-0.42 -0.202,-0.588c-0.132,-0.168 -0.314,-0.288 -0.521,-0.343Zm-0.24,1.411c-0.096,-0 -0.187,-0.029 -0.266,-0.082c-0.079,-0.052 -0.142,-0.127 -0.178,-0.213c-0.036,-0.089 -0.045,-0.185 -0.026,-0.279c0.019,-0.093 0.065,-0.177 0.132,-0.244c0.067,-0.068 0.151,-0.113 0.245,-0.132c0.093,-0.02 0.189,-0.01 0.278,0.026c0.086,0.036 0.161,0.098 0.214,0.178c0.052,0.079 0.081,0.17 0.081,0.266c0,0.127 -0.05,0.25 -0.141,0.338c-0.089,0.092 -0.212,0.142 -0.339,0.142Zm3.12,1.92c0,-0.214 -0.072,-0.42 -0.201,-0.588c-0.13,-0.168 -0.312,-0.288 -0.519,-0.343l0,-2.909c0,-0.065 -0.026,-0.125 -0.069,-0.17c-0.046,-0.044 -0.106,-0.07 -0.171,-0.07c-0.065,-0 -0.125,0.026 -0.17,0.07c-0.043,0.045 -0.07,0.105 -0.07,0.17l0,2.909c-0.206,0.055 -0.389,0.175 -0.521,0.343c-0.129,0.168 -0.201,0.374 -0.201,0.588c-0,0.214 0.072,0.42 0.201,0.588c0.132,0.168 0.315,0.288 0.521,0.343l0,0.509c0,0.065 0.027,0.125 0.07,0.17c0.045,0.044 0.105,0.07 0.17,0.07c0.065,-0 0.125,-0.026 0.171,-0.07c0.043,-0.045 0.069,-0.105 0.069,-0.17l0,-0.509c0.207,-0.055 0.389,-0.175 0.519,-0.343c0.129,-0.168 0.201,-0.374 0.201,-0.588Zm-0.96,0.48c-0.096,-0 -0.187,-0.029 -0.266,-0.082c-0.079,-0.052 -0.142,-0.127 -0.178,-0.213c-0.036,-0.089 -0.045,-0.185 -0.026,-0.279c0.019,-0.093 0.065,-0.177 0.132,-0.244c0.067,-0.068 0.151,-0.113 0.245,-0.132c0.093,-0.02 0.189,-0.01 0.278,0.026c0.086,0.036 0.161,0.098 0.214,0.178c0.052,0.079 0.081,0.17 0.081,0.266c0,0.127 -0.05,0.25 -0.141,0.338c-0.089,0.092 -0.212,0.142 -0.339,0.142Z" style="fill:#fff;fill-rule:nonzero;"/><g id="g523"></g><g id="g5231" serif:id="g523"></g><g id="g213"></g><g id="g241"></g><g id="g297"></g><g id="g327"></g><g id="g364"></g><g id="g392"></g></svg>