<?xml version="1.0" encoding="UTF-8" standalone="no"?><!DOCTYPE svg PUBLIC "-//W3C//DTD SVG 1.1//EN" "http://www.w3.org/Graphics/SVG/1.1/DTD/svg11.dtd"><svg width="100%" height="100%" viewBox="-1.3 -2 10 10" version="1.1" xmlns="http://www.w3.org/2000/svg" xmlns:xlink="http://www.w3.org/1999/xlink" xml:space="preserve" xmlns:serif="http://www.serif.com/" style="fill-rule:evenodd;clip-rule:evenodd;stroke-linejoin:round;stroke-miterlimit:2;"><rect id="Artboard19" x="0" y="0" width="7.2" height="7.2" style="fill:none;"/><path d="M5.944,1.651l0,0.96c0,0.063 -0.025,0.124 -0.07,0.169c-0.045,0.045 -0.106,0.071 -0.17,0.071c-0.063,-0 -0.124,-0.026 -0.169,-0.071c-0.045,-0.045 -0.071,-0.106 -0.071,-0.169l0,-0.72l-0.72,-0c-0.063,-0 -0.124,-0.026 -0.169,-0.071c-0.045,-0.045 -0.071,-0.106 -0.071,-0.169c0,-0.064 0.026,-0.125 0.071,-0.17c0.045,-0.045 0.106,-0.07 0.169,-0.07l0.96,-0c0.064,-0 0.125,0.025 0.17,0.07c0.045,0.045 0.07,0.106 0.07,0.17Zm-3.12,2.64l-0.72,-0l0,-0.72c0,-0.064 -0.025,-0.125 -0.07,-0.17c-0.045,-0.045 -0.106,-0.07 -0.17,-0.07c-0.063,-0 -0.124,0.025 -0.169,0.07c-0.045,0.045 -0.071,0.106 -0.071,0.17l0,0.96c0,0.063 0.026,0.124 0.071,0.169c0.045,0.045 0.106,0.071 0.169,0.071l0.96,-0c0.064,-0 0.125,-0.026 0.17,-0.071c0.045,-0.045 0.07,-0.106 0.07,-0.169c0,-0.064 -0.025,-0.125 -0.07,-0.17c-0.045,-0.045 -0.106,-0.07 -0.17,-0.07Zm4.08,-3.36l0,4.32c0,0.127 -0.05,0.249 -0.14,0.339c-0.09,0.09 -0.212,0.141 -0.34,0.141l-5.28,-0c-0.127,-0 -0.249,-0.051 -0.339,-0.141c-0.09,-0.09 -0.141,-0.212 -0.141,-0.339l0,-4.32c0,-0.128 0.051,-0.25 0.141,-0.34c0.09,-0.09 0.212,-0.14 0.339,-0.14l5.28,-0c0.128,-0 0.25,0.05 0.34,0.14c0.09,0.09 0.14,0.212 0.14,0.34Zm-0.48,4.32l0,-4.32l-5.28,-0l0,4.32l5.28,-0Z" style="fill:#fff;fill-rule:nonzero;"/><g id="g523"></g><g id="g5231" serif:id="g523"></g><g id="g213"></g><g id="g241"></g><g id="g297"></g><g id="g327"></g><g id="g364"></g><g id="g392"></g></svg>