<?xml version="1.0" encoding="UTF-8" standalone="no"?><!DOCTYPE svg PUBLIC "-//W3C//DTD SVG 1.1//EN" "http://www.w3.org/Graphics/SVG/1.1/DTD/svg11.dtd"><svg width="100%" height="100%" viewBox="-0.75 -1 9 9" version="1.1" xmlns="http://www.w3.org/2000/svg" xmlns:xlink="http://www.w3.org/1999/xlink" xml:space="preserve" xmlns:serif="http://www.serif.com/" style="fill-rule:evenodd;clip-rule:evenodd;stroke-linejoin:round;stroke-miterlimit:2;"><rect id="Artboard11" x="0" y="0" width="7.2" height="7.2" style="fill:none;"/><path d="M6.599,4.417c-0.027,0.015 -0.058,0.025 -0.089,0.029c-0.031,0.004 -0.063,0.002 -0.093,-0.006c-0.031,-0.009 -0.059,-0.023 -0.084,-0.042c-0.025,-0.02 -0.046,-0.044 -0.062,-0.071l-0.57,-0.996c-0.331,0.224 -0.697,0.392 -1.082,0.499l0.176,1.057c0.005,0.031 0.004,0.063 -0.003,0.094c-0.007,0.03 -0.02,0.059 -0.038,0.085c-0.019,0.026 -0.042,0.047 -0.069,0.064c-0.026,0.017 -0.056,0.028 -0.087,0.033c-0.013,0.002 -0.026,0.004 -0.039,0.004c-0.057,-0 -0.112,-0.021 -0.155,-0.058c-0.043,-0.036 -0.072,-0.087 -0.081,-0.143l-0.174,-1.038c-0.365,0.051 -0.735,0.051 -1.1,0l-0.173,1.038c-0.009,0.056 -0.038,0.107 -0.082,0.144c-0.043,0.036 -0.098,0.057 -0.155,0.057c-0.013,-0 -0.027,-0.002 -0.04,-0.004c-0.031,-0.005 -0.061,-0.016 -0.087,-0.033c-0.027,-0.017 -0.05,-0.038 -0.069,-0.064c-0.018,-0.026 -0.031,-0.055 -0.038,-0.085c-0.007,-0.031 -0.008,-0.063 -0.003,-0.094l0.177,-1.057c-0.385,-0.107 -0.751,-0.276 -1.082,-0.5l-0.568,0.997c-0.032,0.055 -0.084,0.096 -0.146,0.112c-0.062,0.017 -0.128,0.008 -0.183,-0.023c-0.056,-0.032 -0.096,-0.085 -0.113,-0.146c-0.017,-0.062 -0.008,-0.128 0.024,-0.183l0.6,-1.05c-0.211,-0.183 -0.405,-0.383 -0.579,-0.6c-0.022,-0.025 -0.039,-0.053 -0.049,-0.084c-0.01,-0.031 -0.014,-0.064 -0.012,-0.096c0.003,-0.033 0.012,-0.064 0.028,-0.093c0.015,-0.029 0.036,-0.054 0.061,-0.075c0.026,-0.02 0.055,-0.035 0.087,-0.044c0.031,-0.009 0.064,-0.011 0.096,-0.006c0.032,0.004 0.063,0.015 0.091,0.032c0.028,0.017 0.053,0.039 0.072,0.066c0.498,0.616 1.369,1.35 2.693,1.35c1.324,-0 2.195,-0.735 2.693,-1.35c0.019,-0.028 0.043,-0.05 0.071,-0.068c0.028,-0.017 0.06,-0.028 0.092,-0.033c0.033,-0.005 0.066,-0.003 0.098,0.006c0.032,0.009 0.061,0.024 0.087,0.044c0.025,0.021 0.047,0.047 0.062,0.076c0.015,0.029 0.024,0.061 0.027,0.094c0.002,0.033 -0.002,0.066 -0.013,0.097c-0.011,0.031 -0.028,0.059 -0.05,0.084c-0.175,0.217 -0.369,0.417 -0.579,0.6l0.6,1.05c0.016,0.027 0.026,0.057 0.03,0.089c0.005,0.031 0.003,0.063 -0.005,0.094c-0.008,0.031 -0.023,0.059 -0.042,0.084c-0.019,0.026 -0.043,0.047 -0.071,0.063Z" style="fill:#fff;fill-rule:nonzero;"/><g id="g523"></g><g id="g5231" serif:id="g523"></g><g id="g213"></g><g id="g241"></g><g id="g297"></g><g id="g327"></g><g id="g364"></g><g id="g392"></g></svg>