<?xml version="1.0" encoding="UTF-8" standalone="no"?><!DOCTYPE svg PUBLIC "-//W3C//DTD SVG 1.1//EN" "http://www.w3.org/Graphics/SVG/1.1/DTD/svg11.dtd"><svg width="100%" height="100%" viewBox="-0.5 -0.3 8 8" version="1.1" xmlns="http://www.w3.org/2000/svg" xmlns:xlink="http://www.w3.org/1999/xlink" xml:space="preserve" xmlns:serif="http://www.serif.com/" style="fill-rule:evenodd;clip-rule:evenodd;stroke-linejoin:round;stroke-miterlimit:2;"><rect id="Artboard19" x="0" y="0" width="7.2" height="7.2" style="fill:none;"/><path d="M7.179,3.503c-0.01,-0.024 -0.264,-0.588 -0.829,-1.153c-0.753,-0.752 -1.704,-1.15 -2.75,-1.15c-1.046,0 -1.997,0.398 -2.75,1.15c-0.565,0.565 -0.82,1.13 -0.829,1.153c-0.014,0.03 -0.021,0.064 -0.021,0.097c0,0.034 0.007,0.067 0.021,0.098c0.01,0.023 0.264,0.587 0.829,1.152c0.753,0.752 1.704,1.15 2.75,1.15c1.046,0 1.997,-0.398 2.75,-1.15c0.565,-0.565 0.819,-1.129 0.829,-1.152c0.014,-0.031 0.021,-0.064 0.021,-0.098c0,-0.033 -0.007,-0.067 -0.021,-0.097Zm-3.579,2.017c-0.923,0 -1.73,-0.336 -2.398,-0.997c-0.274,-0.273 -0.507,-0.584 -0.692,-0.923c0.185,-0.339 0.418,-0.65 0.692,-0.923c0.668,-0.661 1.475,-0.997 2.398,-0.997c0.923,0 1.73,0.336 2.398,0.997c0.274,0.273 0.508,0.584 0.693,0.923c-0.216,0.404 -1.158,1.92 -3.091,1.92Zm0,-3.36c-0.285,0 -0.563,0.084 -0.8,0.243c-0.237,0.158 -0.421,0.383 -0.53,0.646c-0.109,0.263 -0.138,0.553 -0.082,0.832c0.055,0.279 0.192,0.536 0.394,0.737c0.201,0.202 0.458,0.339 0.737,0.394c0.279,0.056 0.569,0.027 0.832,-0.082c0.263,-0.109 0.488,-0.293 0.646,-0.53c0.159,-0.237 0.243,-0.515 0.243,-0.8c-0,-0.382 -0.152,-0.748 -0.422,-1.018c-0.27,-0.27 -0.636,-0.422 -1.018,-0.422Zm0,2.4c-0.19,0 -0.375,-0.056 -0.533,-0.162c-0.158,-0.105 -0.281,-0.255 -0.354,-0.431c-0.073,-0.175 -0.092,-0.368 -0.055,-0.554c0.037,-0.187 0.129,-0.358 0.263,-0.492c0.134,-0.134 0.305,-0.226 0.492,-0.263c0.186,-0.037 0.379,-0.018 0.554,0.055c0.176,0.073 0.326,0.196 0.431,0.354c0.106,0.158 0.162,0.343 0.162,0.533c0,0.255 -0.101,0.499 -0.281,0.679c-0.18,0.18 -0.424,0.281 -0.679,0.281Z" style="fill:#fff;fill-rule:nonzero;"/><g id="g523"></g><g id="g5231" serif:id="g523"></g><g id="g213"></g><g id="g241"></g><g id="g297"></g><g id="g327"></g><g id="g364"></g><g id="g392"></g></svg>