<?xml version="1.0" encoding="UTF-8" standalone="no"?><!DOCTYPE svg PUBLIC "-//W3C//DTD SVG 1.1//EN" "http://www.w3.org/Graphics/SVG/1.1/DTD/svg11.dtd"><svg width="100%" height="100%" viewBox="-1.5 -1.5 10 10" version="1.1" xmlns="http://www.w3.org/2000/svg" xmlns:xlink="http://www.w3.org/1999/xlink" xml:space="preserve" xmlns:serif="http://www.serif.com/" style="fill-rule:evenodd;clip-rule:evenodd;stroke-linejoin:round;stroke-miterlimit:2;"><rect id="Artboard8" x="0" y="0" width="7.2" height="7.2" style="fill:none;"/><path d="M6.24,1.2l0,1.44c0,0.064 -0.025,0.125 -0.07,0.17c-0.045,0.045 -0.106,0.07 -0.17,0.07c-0.064,0 -0.125,-0.025 -0.17,-0.07c-0.045,-0.045 -0.07,-0.106 -0.07,-0.17l0,-0.861l-1.51,1.511c-0.045,0.045 -0.106,0.07 -0.17,0.07c-0.064,0 -0.125,-0.025 -0.17,-0.07c-0.045,-0.045 -0.07,-0.106 -0.07,-0.17c-0,-0.064 0.025,-0.125 0.07,-0.17l1.511,-1.51l-0.861,0c-0.064,0 -0.125,-0.025 -0.17,-0.07c-0.045,-0.045 -0.07,-0.106 -0.07,-0.17c0,-0.064 0.025,-0.125 0.07,-0.17c0.045,-0.045 0.106,-0.07 0.17,-0.07l1.44,0c0.064,0 0.125,0.025 0.17,0.07c0.045,0.045 0.07,0.106 0.07,0.17Zm-3.29,2.71l-1.51,1.511l0,-0.861c0,-0.064 -0.025,-0.125 -0.07,-0.17c-0.045,-0.045 -0.106,-0.07 -0.17,-0.07c-0.064,0 -0.125,0.025 -0.17,0.07c-0.045,0.045 -0.07,0.106 -0.07,0.17l0,1.44c0,0.064 0.025,0.125 0.07,0.17c0.045,0.045 0.106,0.07 0.17,0.07l1.44,0c0.064,0 0.125,-0.025 0.17,-0.07c0.045,-0.045 0.07,-0.106 0.07,-0.17c0,-0.064 -0.025,-0.125 -0.07,-0.17c-0.045,-0.045 -0.106,-0.07 -0.17,-0.07l-0.861,0l1.511,-1.51c0.045,-0.045 0.07,-0.106 0.07,-0.17c0,-0.064 -0.025,-0.125 -0.07,-0.17c-0.045,-0.045 -0.106,-0.07 -0.17,-0.07c-0.064,-0 -0.125,0.025 -0.17,0.07Z" style="fill:#fff;fill-rule:nonzero;"/><g id="g523"></g><g id="g5231" serif:id="g523"></g><g id="g213"></g><g id="g241"></g><g id="g297"></g><g id="g327"></g><g id="g364"></g><g id="g392"></g></svg>