<?xml version="1.0" encoding="UTF-8" standalone="no"?><!DOCTYPE svg PUBLIC "-//W3C//DTD SVG 1.1//EN" "http://www.w3.org/Graphics/SVG/1.1/DTD/svg11.dtd"><svg width="100%" height="100%" viewBox="0 0 7 7" version="1.1" xmlns="http://www.w3.org/2000/svg" xmlns:xlink="http://www.w3.org/1999/xlink" xml:space="preserve" xmlns:serif="http://www.serif.com/" style="fill-rule:evenodd;clip-rule:evenodd;stroke-linejoin:round;stroke-miterlimit:2;"><rect id="Artboard12" x="0" y="0" width="6.24" height="6.48" style="fill:none;"/><clipPath id="_clip1"><rect x="0" y="0" width="6.24" height="6.48"/></clipPath><g clip-path="url(#_clip1)"><path d="M5.76,0.72l-2.4,-0l0,-0.48c0,-0.064 -0.026,-0.125 -0.07,-0.17c-0.045,-0.045 -0.105,-0.07 -0.17,-0.07c-0.065,0 -0.125,0.025 -0.17,0.07c-0.044,0.045 -0.07,0.106 -0.07,0.17l0,0.48l-2.4,-0c-0.127,-0 -0.25,0.051 -0.338,0.141c-0.092,0.09 -0.142,0.212 -0.142,0.339l0,3.6c0,0.127 0.05,0.249 0.142,0.339c0.088,0.09 0.211,0.141 0.338,0.141l1.181,-0l-0.648,0.81c-0.041,0.05 -0.058,0.113 -0.051,0.176c0.005,0.064 0.039,0.122 0.089,0.161c0.048,0.04 0.113,0.059 0.175,0.052c0.063,-0.007 0.123,-0.039 0.161,-0.089l0.888,-1.11l1.69,-0l0.888,1.11c0.019,0.025 0.043,0.045 0.072,0.06c0.026,0.016 0.057,0.025 0.089,0.029c0.031,0.003 0.062,0.001 0.093,-0.008c0.029,-0.009 0.058,-0.024 0.082,-0.044c0.026,-0.019 0.045,-0.043 0.062,-0.071c0.015,-0.028 0.024,-0.058 0.027,-0.09c0.004,-0.031 0.002,-0.062 -0.008,-0.093c-0.009,-0.03 -0.024,-0.058 -0.043,-0.083l-0.648,-0.81l1.181,-0c0.127,-0 0.25,-0.051 0.338,-0.141c0.092,-0.09 0.142,-0.212 0.142,-0.339l0,-3.6c0,-0.127 -0.05,-0.249 -0.142,-0.339c-0.088,-0.09 -0.211,-0.141 -0.338,-0.141Zm0,4.08l-5.28,-0l0,-3.6l5.28,0l0,3.6Z" style="fill:#fff;fill-rule:nonzero;"/></g><g id="g523"></g><g id="g5231" serif:id="g523"></g><g id="g213"></g><g id="g241"></g><g id="g297"></g><g id="g327"></g><g id="g364"></g><g id="g392"></g></svg>