<?xml version="1.0" encoding="UTF-8" standalone="no"?><!DOCTYPE svg PUBLIC "-//W3C//DTD SVG 1.1//EN" "http://www.w3.org/Graphics/SVG/1.1/DTD/svg11.dtd"><svg width="100%" height="100%" viewBox="0 0 8 8" version="1.1" xmlns="http://www.w3.org/2000/svg" xmlns:xlink="http://www.w3.org/1999/xlink" xml:space="preserve" xmlns:serif="http://www.serif.com/" style="fill-rule:evenodd;clip-rule:evenodd;stroke-linejoin:round;stroke-miterlimit:2;"><rect id="Artboard19" x="0" y="0" width="7.2" height="7.2" style="fill:none;"/><clipPath id="_clip1"><rect x="0" y="0" width="7.2" height="7.2"/></clipPath><g clip-path="url(#_clip1)"><path d="M7.221,2.309l-0.765,-1.532c-0.029,-0.056 -0.068,-0.106 -0.116,-0.148c-0.048,-0.041 -0.103,-0.072 -0.163,-0.092c-0.06,-0.02 -0.122,-0.028 -0.185,-0.024c-0.064,0.005 -0.124,0.021 -0.182,0.05l-0.746,0.372l-1.57,-0.415c-0.041,-0.011 -0.084,-0.011 -0.125,-0l-1.572,0.415l-0.744,-0.372c-0.057,-0.029 -0.117,-0.045 -0.182,-0.05c-0.063,-0.004 -0.125,0.004 -0.185,0.024c-0.06,0.02 -0.115,0.051 -0.163,0.092c-0.048,0.042 -0.087,0.092 -0.115,0.148l-0.766,1.532c-0.029,0.056 -0.046,0.117 -0.048,0.18c-0.005,0.063 0.002,0.126 0.022,0.186c0.021,0.06 0.052,0.115 0.093,0.163c0.041,0.047 0.091,0.087 0.149,0.115l0.809,0.405l1.665,1.189c0.024,0.017 0.051,0.03 0.082,0.037l1.92,0.48c0.038,0.011 0.082,0.01 0.122,-0.001c0.039,-0.011 0.075,-0.032 0.106,-0.061l1.651,-1.653l0.792,-0.396c0.115,-0.057 0.202,-0.157 0.24,-0.278c0.041,-0.12 0.031,-0.252 -0.024,-0.366Zm-1.646,1.001l-1.035,-0.827c-0.045,-0.037 -0.103,-0.055 -0.163,-0.052c-0.057,0.003 -0.115,0.028 -0.156,0.07c-0.535,0.539 -1.13,0.471 -1.509,0.231l1.296,-1.26l0.955,-0l0.816,1.632l-0.204,0.206Zm-4.738,-2.318l0.615,0.306l-0.768,1.532l-0.612,-0.306l0.765,-1.532Zm3.48,3.573l-1.742,-0.435l-1.476,-1.054l0.84,-1.68l1.493,-0.396l0.292,0.078l-1.348,1.31l-0.003,0.003c-0.05,0.051 -0.089,0.112 -0.113,0.18c-0.024,0.068 -0.033,0.14 -0.024,0.212c0.008,0.071 0.032,0.14 0.07,0.201c0.036,0.061 0.089,0.112 0.149,0.151c0.617,0.394 1.361,0.33 1.946,-0.15l0.831,0.667l-0.915,0.913Zm1.86,-1.735l-0.765,-1.53l0.614,-0.308l0.766,1.532l-0.615,0.306Zm-2.633,2.779c-0.012,0.052 -0.043,0.098 -0.084,0.132c-0.043,0.032 -0.093,0.05 -0.148,0.05c-0.02,0 -0.039,-0.002 -0.058,-0.007l-1.25,-0.313c-0.029,-0.007 -0.058,-0.019 -0.082,-0.037l-0.79,-0.564c-0.048,-0.039 -0.081,-0.094 -0.088,-0.155c-0.01,-0.061 0.004,-0.124 0.04,-0.174c0.036,-0.05 0.092,-0.085 0.152,-0.096c0.06,-0.012 0.124,0.001 0.175,0.035l0.753,0.538l1.208,0.301c0.062,0.015 0.115,0.055 0.146,0.109c0.034,0.055 0.043,0.12 0.029,0.182l-0.003,-0.001Z" style="fill:#fff;fill-rule:nonzero;"/></g><g id="g523"></g><g id="g5231" serif:id="g523"></g><g id="g213"></g><g id="g241"></g><g id="g297"></g><g id="g327"></g><g id="g364"></g><g id="g392"></g></svg>