<?xml version="1.0" encoding="UTF-8" standalone="no"?><!DOCTYPE svg PUBLIC "-//W3C//DTD SVG 1.1//EN" "http://www.w3.org/Graphics/SVG/1.1/DTD/svg11.dtd"><svg width="100%" height="100%" viewBox="0 0 8 8" version="1.1" xmlns="http://www.w3.org/2000/svg" xmlns:xlink="http://www.w3.org/1999/xlink" xml:space="preserve" xmlns:serif="http://www.serif.com/" style="fill-rule:evenodd;clip-rule:evenodd;stroke-linejoin:round;stroke-miterlimit:2;"><rect id="Artboard19" x="0" y="0" width="7.2" height="7.2" style="fill:none;"/><path d="M6.03,2.016c-0.287,-0.29 -0.628,-0.52 -1.004,-0.678c-0.377,-0.158 -0.78,-0.24 -1.189,-0.241l-0.023,-0c-0.828,-0 -1.621,0.328 -2.206,0.913c-0.586,0.585 -0.914,1.379 -0.914,2.207l-0,1.68c-0,0.19 0.076,0.374 0.211,0.509c0.135,0.135 0.318,0.211 0.509,0.211l0.48,-0c0.191,-0 0.374,-0.076 0.509,-0.211c0.135,-0.135 0.211,-0.319 0.211,-0.509l-0,-1.2c-0,-0.191 -0.076,-0.375 -0.211,-0.51c-0.135,-0.135 -0.318,-0.21 -0.509,-0.21l-0.709,-0c0.059,-0.656 0.362,-1.266 0.849,-1.71c0.486,-0.444 1.121,-0.691 1.78,-0.69l0.02,-0c0.656,0.002 1.287,0.25 1.77,0.694c0.483,0.444 0.782,1.052 0.84,1.706l-0.71,-0c-0.191,-0 -0.374,0.075 -0.509,0.21c-0.135,0.135 -0.211,0.319 -0.211,0.51l-0,1.2c-0,0.19 0.076,0.374 0.211,0.509c0.135,0.135 0.318,0.211 0.509,0.211l0.48,-0c0.191,-0 0.374,-0.076 0.509,-0.211c0.135,-0.135 0.211,-0.319 0.211,-0.509l-0,-1.68c0.001,-0.409 -0.078,-0.813 -0.233,-1.191c-0.155,-0.377 -0.383,-0.72 -0.671,-1.01Zm-4.136,2.441c0.063,-0 0.124,0.025 0.169,0.07c0.045,0.045 0.071,0.106 0.071,0.17l-0,1.2c-0,0.063 -0.026,0.124 -0.071,0.169c-0.045,0.045 -0.106,0.071 -0.169,0.071l-0.48,-0c-0.064,-0 -0.125,-0.026 -0.17,-0.071c-0.045,-0.045 -0.07,-0.106 -0.07,-0.169l-0,-1.44l0.72,-0Zm4.56,1.44c-0,0.063 -0.026,0.124 -0.071,0.169c-0.045,0.045 -0.106,0.071 -0.169,0.071l-0.48,-0c-0.064,-0 -0.125,-0.026 -0.17,-0.071c-0.045,-0.045 -0.07,-0.106 -0.07,-0.169l-0,-1.2c-0,-0.064 0.025,-0.125 0.07,-0.17c0.045,-0.045 0.106,-0.07 0.17,-0.07l0.72,-0l-0,1.44Z" style="fill:#fff;fill-rule:nonzero;"/><g id="g523"></g><g id="g5231" serif:id="g523"></g><g id="g213"></g><g id="g241"></g><g id="g297"></g><g id="g327"></g><g id="g364"></g><g id="g392"></g></svg>