<?xml version="1.0" encoding="UTF-8" standalone="no"?><!DOCTYPE svg PUBLIC "-//W3C//DTD SVG 1.1//EN" "http://www.w3.org/Graphics/SVG/1.1/DTD/svg11.dtd"><svg width="100%" height="100%" viewBox="-1 -1 14 14" version="1.1" xmlns="http://www.w3.org/2000/svg" xmlns:xlink="http://www.w3.org/1999/xlink" xml:space="preserve" xmlns:serif="http://www.serif.com/" style="fill-rule:evenodd;clip-rule:evenodd;stroke-linejoin:round;stroke-miterlimit:2;"><rect id="Artboard1" x="0" y="0" width="12" height="12" style="fill:none;"/><g id="g194"><path id="path186" d="M2.381,9.609c-0.058,-0.058 -0.105,-0.154 -0.105,-0.215c0,-0.145 6.897,-7.047 7.092,-7.097c0.185,-0.047 0.348,0.078 0.348,0.267c-0,0.173 -6.948,7.149 -7.12,7.149c-0.061,-0 -0.158,-0.047 -0.215,-0.104Zm2.397,-0.639l-0.388,-0.071l0.31,-0.314l0.309,-0.314l0.278,0.095c0.443,0.153 1.317,0.091 1.785,-0.127c1.049,-0.489 1.639,-1.729 1.354,-2.844l-0.108,-0.421l0.18,-0.188c0.099,-0.103 0.201,-0.188 0.227,-0.188c0.079,0 0.25,0.496 0.33,0.957c0.128,0.732 -0.109,1.669 -0.577,2.282l-0.169,0.222l0.255,-0.106c0.711,-0.295 1.773,-1.077 2.244,-1.652l0.249,-0.303l-0.138,-0.193c-0.216,-0.303 -0.917,-0.926 -1.416,-1.258l-0.456,-0.303l0.422,-0.435l0.372,0.253c0.609,0.415 1.012,0.771 1.452,1.282c0.588,0.685 0.588,0.685 -0.365,1.633c-1.022,1.016 -1.882,1.522 -3.197,1.878c-0.598,0.162 -2.324,0.229 -2.953,0.115Zm-2.913,-1.284c-0.567,-0.426 -1.347,-1.213 -1.517,-1.531c-0.124,-0.23 -0.017,-0.402 0.699,-1.129c0.669,-0.679 1.176,-1.044 1.979,-1.426c0.938,-0.446 1.608,-0.607 2.676,-0.645c0.889,-0.032 1.888,0.061 1.888,0.174c0,0.026 -0.115,0.16 -0.256,0.297l-0.256,0.25l-0.534,-0.108c-0.597,-0.121 -1.045,-0.075 -1.576,0.159c-0.338,0.15 -0.854,0.605 -1.063,0.938c-0.358,0.571 -0.474,1.472 -0.265,2.064l0.101,0.288l-0.226,0.227l-0.227,0.226l-0.149,-0.39c-0.186,-0.484 -0.245,-1.278 -0.131,-1.761c0.081,-0.346 0.353,-0.932 0.573,-1.237l0.108,-0.151l-0.324,0.139c-0.882,0.378 -2.487,1.736 -2.351,1.989c0.115,0.216 1.199,1.19 1.597,1.436l0.4,0.247l-0.18,0.188c-0.1,0.104 -0.228,0.189 -0.285,0.189c-0.057,-0 -0.363,-0.195 -0.681,-0.433Zm4.011,-0.157c-0.047,-0.029 0.268,-0.387 0.827,-0.941l0.902,-0.894l-0.035,0.374c-0.075,0.802 -0.591,1.351 -1.38,1.471c-0.131,0.02 -0.273,0.016 -0.314,-0.01l-0,-0Zm-1.408,-1.573c0,-0.468 0.26,-0.969 0.636,-1.228c0.311,-0.214 0.989,-0.392 1.093,-0.287c0.039,0.038 -0.281,0.404 -0.833,0.956l-0.896,0.893l0,-0.334Z" style="fill:#fff;fill-rule:nonzero;"/></g></svg>