<?xml version="1.0" encoding="UTF-8" standalone="no"?><!DOCTYPE svg PUBLIC "-//W3C//DTD SVG 1.1//EN" "http://www.w3.org/Graphics/SVG/1.1/DTD/svg11.dtd"><svg width="100%" height="100%" viewBox="0 0 6 5" version="1.1" xmlns="http://www.w3.org/2000/svg" xmlns:xlink="http://www.w3.org/1999/xlink" xml:space="preserve" xmlns:serif="http://www.serif.com/" style="fill-rule:evenodd;clip-rule:evenodd;stroke-linejoin:round;stroke-miterlimit:2;"><rect id="Artboard7" x="0" y="0" width="5.989" height="4.829" style="fill:none;"/><path d="M3.193,0.419l-0,3.96c-0,0.048 -0.019,0.093 -0.053,0.127c-0.034,0.034 -0.079,0.053 -0.127,0.053c-0.048,-0 -0.094,-0.019 -0.127,-0.053c-0.034,-0.034 -0.053,-0.079 -0.053,-0.127l-0,-3.96c-0,-0.048 0.019,-0.094 0.053,-0.127c0.033,-0.034 0.079,-0.053 0.127,-0.053c0.048,-0 0.093,0.019 0.127,0.053c0.034,0.033 0.053,0.079 0.053,0.127Zm-0.9,1.8l-1.366,-0l0.413,-0.413c0.034,-0.034 0.053,-0.079 0.053,-0.127c-0,-0.048 -0.019,-0.094 -0.053,-0.128c-0.034,-0.033 -0.079,-0.052 -0.127,-0.052c-0.048,-0 -0.094,0.019 -0.128,0.052l-0.72,0.72c-0.016,0.017 -0.03,0.037 -0.039,0.059c-0.009,0.022 -0.013,0.045 -0.013,0.069c-0,0.023 0.004,0.047 0.013,0.069c0.009,0.022 0.023,0.041 0.039,0.058l0.72,0.72c0.034,0.034 0.08,0.053 0.128,0.053c0.048,-0 0.093,-0.019 0.127,-0.053c0.034,-0.034 0.053,-0.079 0.053,-0.127c-0,-0.048 -0.019,-0.094 -0.053,-0.128l-0.413,-0.412l1.366,-0c0.048,-0 0.093,-0.019 0.127,-0.053c0.034,-0.034 0.053,-0.079 0.053,-0.127c-0,-0.048 -0.019,-0.094 -0.053,-0.127c-0.034,-0.034 -0.079,-0.053 -0.127,-0.053Zm3.367,0.052l-0.72,-0.72c-0.034,-0.033 -0.079,-0.052 -0.127,-0.052c-0.048,-0 -0.094,0.019 -0.128,0.052c-0.033,0.034 -0.052,0.08 -0.052,0.128c-0,0.048 0.019,0.093 0.052,0.127l0.413,0.413l-1.365,-0c-0.048,-0 -0.094,0.019 -0.128,0.053c-0.033,0.033 -0.052,0.079 -0.052,0.127c-0,0.048 0.019,0.093 0.052,0.127c0.034,0.034 0.08,0.053 0.128,0.053l1.365,-0l-0.413,0.412c-0.033,0.034 -0.052,0.08 -0.052,0.128c-0,0.048 0.019,0.093 0.052,0.127c0.034,0.034 0.08,0.053 0.128,0.053c0.048,-0 0.093,-0.019 0.127,-0.053l0.72,-0.72c0.017,-0.017 0.03,-0.036 0.039,-0.058c0.009,-0.022 0.014,-0.046 0.014,-0.069c-0,-0.024 -0.005,-0.047 -0.014,-0.069c-0.009,-0.022 -0.022,-0.042 -0.039,-0.059Z" style="fill:#fff;fill-rule:nonzero;"/><g id="g523"></g><g id="g5231" serif:id="g523"></g><g id="g213"></g><g id="g241"></g><g id="g297"></g><g id="g327"></g><g id="g364"></g><g id="g392"></g></svg>