<?xml version="1.0" encoding="UTF-8" standalone="no"?><!DOCTYPE svg PUBLIC "-//W3C//DTD SVG 1.1//EN" "http://www.w3.org/Graphics/SVG/1.1/DTD/svg11.dtd"><svg width="100%" height="100%" viewBox="0 0 8 8" version="1.1" xmlns="http://www.w3.org/2000/svg" xmlns:xlink="http://www.w3.org/1999/xlink" xml:space="preserve" xmlns:serif="http://www.serif.com/" style="fill-rule:evenodd;clip-rule:evenodd;stroke-linejoin:round;stroke-miterlimit:2;"><rect id="Artboard15" x="-0" y="0" width="7.2" height="7.2" style="fill:none;"/><path d="M5.04,6.72c0,0.064 -0.026,0.125 -0.07,0.17c-0.045,0.045 -0.105,0.07 -0.17,0.07l-2.4,0c-0.065,0 -0.125,-0.025 -0.17,-0.07c-0.044,-0.045 -0.07,-0.106 -0.07,-0.17c0,-0.063 0.026,-0.124 0.07,-0.169c0.045,-0.045 0.105,-0.071 0.17,-0.071l2.4,0c0.065,0 0.125,0.026 0.17,0.071c0.044,0.045 0.07,0.106 0.07,0.169Zm1.2,-3.84c0,0.4 -0.089,0.795 -0.264,1.155c-0.175,0.36 -0.43,0.675 -0.744,0.922c-0.06,0.045 -0.108,0.103 -0.142,0.17c-0.033,0.066 -0.05,0.139 -0.05,0.213l0,0.18c0,0.128 -0.05,0.25 -0.142,0.34c-0.088,0.09 -0.211,0.14 -0.338,0.14l-1.92,0c-0.127,0 -0.25,-0.05 -0.338,-0.14c-0.092,-0.09 -0.142,-0.212 -0.142,-0.34l0,-0.18c0,-0.073 -0.017,-0.145 -0.05,-0.211c-0.032,-0.066 -0.08,-0.124 -0.137,-0.168c-0.315,-0.245 -0.569,-0.559 -0.744,-0.916c-0.175,-0.358 -0.269,-0.751 -0.269,-1.15c-0.007,-1.43 1.147,-2.62 2.578,-2.655c0.35,-0.008 0.7,0.054 1.029,0.183c0.327,0.129 0.627,0.322 0.879,0.568c0.249,0.246 0.451,0.54 0.588,0.864c0.136,0.325 0.206,0.673 0.206,1.025Zm-0.48,0c0,-0.288 -0.058,-0.573 -0.17,-0.838c-0.111,-0.266 -0.274,-0.506 -0.48,-0.708c-0.207,-0.201 -0.452,-0.359 -0.72,-0.464c-0.267,-0.106 -0.555,-0.157 -0.843,-0.15c-1.169,0.028 -2.114,1.002 -2.107,2.172c0,0.326 0.077,0.647 0.221,0.94c0.144,0.293 0.35,0.549 0.609,0.749c0.116,0.09 0.209,0.205 0.272,0.337c0.064,0.131 0.098,0.276 0.098,0.422l0,0.18l1.92,0l0,-0.18c0,-0.147 0.034,-0.291 0.098,-0.423c0.065,-0.132 0.159,-0.247 0.276,-0.337c0.257,-0.202 0.466,-0.46 0.61,-0.754c0.144,-0.295 0.216,-0.618 0.216,-0.946Zm-0.482,-0.28c-0.063,-0.347 -0.231,-0.668 -0.48,-0.917c-0.25,-0.25 -0.572,-0.417 -0.917,-0.479c-0.031,-0.006 -0.065,-0.005 -0.094,0.002c-0.031,0.008 -0.06,0.021 -0.086,0.039c-0.027,0.018 -0.048,0.041 -0.065,0.068c-0.017,0.027 -0.026,0.056 -0.034,0.088c-0.004,0.03 -0.002,0.062 0.005,0.093c0.005,0.031 0.019,0.06 0.039,0.086c0.016,0.025 0.04,0.047 0.067,0.064c0.026,0.016 0.055,0.028 0.086,0.033c0.499,0.084 0.919,0.506 1.003,1.004c0.01,0.055 0.039,0.106 0.082,0.143c0.046,0.036 0.098,0.056 0.156,0.056c0.014,0 0.026,-0.001 0.041,-0.003c0.062,-0.011 0.117,-0.046 0.156,-0.098c0.036,-0.052 0.05,-0.116 0.041,-0.179Z" style="fill:#fff;fill-rule:nonzero;"/><g id="g523"></g><g id="g5231" serif:id="g523"></g><g id="g213"></g><g id="g241"></g><g id="g297"></g><g id="g327"></g><g id="g364"></g><g id="g392"></g></svg>