<?xml version="1.0" encoding="UTF-8" standalone="no"?><!DOCTYPE svg PUBLIC "-//W3C//DTD SVG 1.1//EN" "http://www.w3.org/Graphics/SVG/1.1/DTD/svg11.dtd"><svg width="100%" height="100%" viewBox="0 0 8 8" version="1.1" xmlns="http://www.w3.org/2000/svg" xmlns:xlink="http://www.w3.org/1999/xlink" xml:space="preserve" xmlns:serif="http://www.serif.com/" style="fill-rule:evenodd;clip-rule:evenodd;stroke-linejoin:round;stroke-miterlimit:2;"><rect id="Artboard23" x="0" y="0" width="7.2" height="7.2" style="fill:none;"/><path d="M5.52,2.52c0,0.855 -0.734,1.563 -1.68,1.667l0,0.253c0,0.064 -0.025,0.125 -0.07,0.17c-0.045,0.045 -0.106,0.07 -0.17,0.07c-0.064,0 -0.125,-0.025 -0.17,-0.07c-0.045,-0.045 -0.07,-0.106 -0.07,-0.17l0,-0.48c0,-0.064 0.025,-0.125 0.07,-0.17c0.045,-0.045 0.106,-0.07 0.17,-0.07c0.794,0 1.44,-0.538 1.44,-1.2c0,-0.662 -0.646,-1.2 -1.44,-1.2c-0.794,0 -1.44,0.538 -1.44,1.2c0,0.064 -0.025,0.125 -0.07,0.17c-0.045,0.045 -0.106,0.07 -0.17,0.07c-0.064,0 -0.125,-0.025 -0.17,-0.07c-0.045,-0.045 -0.07,-0.106 -0.07,-0.17c0,-0.926 0.861,-1.68 1.92,-1.68c1.059,0 1.92,0.754 1.92,1.68Zm-1.92,2.88c-0.095,0 -0.188,0.028 -0.267,0.081c-0.079,0.053 -0.14,0.128 -0.176,0.215c-0.037,0.088 -0.046,0.185 -0.028,0.278c0.019,0.093 0.064,0.178 0.132,0.245c0.067,0.068 0.152,0.113 0.245,0.132c0.093,0.018 0.19,0.009 0.278,-0.028c0.087,-0.036 0.162,-0.097 0.215,-0.176c0.053,-0.079 0.081,-0.172 0.081,-0.267c0,-0.127 -0.051,-0.249 -0.141,-0.339c-0.09,-0.09 -0.212,-0.141 -0.339,-0.141Z" style="fill:#fff;fill-rule:nonzero;"/><g id="g523"></g><g id="g5231" serif:id="g523"></g><g id="g213"></g><g id="g241"></g><g id="g297"></g><g id="g327"></g><g id="g364"></g><g id="g392"></g></svg>