<?xml version="1.0" encoding="UTF-8" standalone="no"?><!DOCTYPE svg PUBLIC "-//W3C//DTD SVG 1.1//EN" "http://www.w3.org/Graphics/SVG/1.1/DTD/svg11.dtd"><svg width="100%" height="100%" viewBox="0 0 8 8" version="1.1" xmlns="http://www.w3.org/2000/svg" xmlns:xlink="http://www.w3.org/1999/xlink" xml:space="preserve" xmlns:serif="http://www.serif.com/" style="fill-rule:evenodd;clip-rule:evenodd;stroke-linejoin:round;stroke-miterlimit:2;"><rect id="Artboard19" x="0" y="0" width="7.2" height="7.2" style="fill:none;"/><path d="M6.086,0.996c-0.381,-0.382 -0.88,-0.624 -1.416,-0.688c-0.536,-0.063 -1.077,0.056 -1.537,0.338c-0.46,0.282 -0.811,0.711 -0.998,1.217c-0.186,0.506 -0.196,1.06 -0.029,1.574l-1.657,1.656c-0.044,0.045 -0.08,0.098 -0.104,0.156c-0.024,0.057 -0.036,0.12 -0.036,0.182l-0,0.862c-0,0.127 0.05,0.249 0.14,0.338c0.09,0.091 0.213,0.142 0.34,0.142l0.96,-0c0.063,-0 0.125,-0.027 0.17,-0.07c0.045,-0.045 0.07,-0.105 0.07,-0.17l-0,-0.48l0.48,-0c0.063,-0 0.125,-0.027 0.17,-0.07c0.045,-0.045 0.07,-0.105 0.07,-0.17l-0,-0.48l0.48,-0c0.031,-0 0.062,-0.007 0.092,-0.019c0.029,-0.012 0.055,-0.029 0.078,-0.051l0.287,-0.288c0.24,0.079 0.49,0.118 0.743,0.118l0.003,-0c0.474,-0 0.938,-0.142 1.332,-0.406c0.394,-0.264 0.701,-0.638 0.883,-1.077c0.181,-0.44 0.228,-0.922 0.136,-1.385c-0.093,-0.466 -0.322,-0.894 -0.657,-1.229Zm0.223,1.759c-0.033,1.023 -0.893,1.855 -1.917,1.858l-0.003,-0c-0.243,-0 -0.484,-0.046 -0.71,-0.135c-0.044,-0.019 -0.093,-0.026 -0.14,-0.016c-0.047,0.009 -0.091,0.031 -0.125,0.067l-0.325,0.324l-0.62,-0c-0.064,-0 -0.125,0.026 -0.17,0.069c-0.045,0.046 -0.07,0.106 -0.07,0.171l-0,0.48l-0.48,-0c-0.064,-0 -0.125,0.026 -0.17,0.069c-0.045,0.046 -0.07,0.106 -0.07,0.171l-0,0.48l-0.72,-0l-0,-0.862l1.765,-1.764c0.034,-0.033 0.057,-0.077 0.066,-0.125c0.009,-0.048 0.003,-0.096 -0.016,-0.139c-0.09,-0.228 -0.136,-0.468 -0.135,-0.713c-0,-1.024 0.834,-1.884 1.857,-1.916c0.263,-0.009 0.524,0.036 0.769,0.133c0.244,0.096 0.466,0.242 0.652,0.428c0.186,0.185 0.332,0.407 0.428,0.652c0.097,0.245 0.142,0.507 0.134,0.768Zm-0.96,-0.662c-0,0.072 -0.021,0.141 -0.061,0.199c-0.039,0.06 -0.096,0.106 -0.161,0.134c-0.066,0.027 -0.139,0.034 -0.208,0.02c-0.07,-0.015 -0.134,-0.048 -0.185,-0.099c-0.05,-0.05 -0.084,-0.115 -0.098,-0.185c-0.014,-0.069 -0.007,-0.141 0.02,-0.207c0.028,-0.066 0.074,-0.122 0.133,-0.161c0.059,-0.04 0.129,-0.061 0.2,-0.061c0.095,-0 0.187,0.038 0.254,0.105c0.068,0.068 0.106,0.159 0.106,0.255Z" style="fill:#fff;fill-rule:nonzero;"/><g id="g523"></g><g id="g5231" serif:id="g523"></g><g id="g213"></g><g id="g241"></g><g id="g297"></g><g id="g327"></g><g id="g364"></g><g id="g392"></g></svg>