<?xml version="1.0" encoding="UTF-8" standalone="no"?><!DOCTYPE svg PUBLIC "-//W3C//DTD SVG 1.1//EN" "http://www.w3.org/Graphics/SVG/1.1/DTD/svg11.dtd"><svg width="100%" height="100%" viewBox="-1.2 -1.2 10 10" version="1.1" xmlns="http://www.w3.org/2000/svg" xmlns:xlink="http://www.w3.org/1999/xlink" xml:space="preserve" xmlns:serif="http://www.serif.com/" style="fill-rule:evenodd;clip-rule:evenodd;stroke-linejoin:round;stroke-miterlimit:2;"><rect id="Artboard8" x="0" y="0" width="7.2" height="7.2" style="fill:none;"/><path d="M6.774,0.887l-2.16,0c-0.187,0 -0.37,0.044 -0.537,0.127c-0.167,0.083 -0.311,0.204 -0.423,0.353c-0.112,-0.149 -0.257,-0.27 -0.424,-0.353c-0.166,-0.083 -0.35,-0.127 -0.536,-0.127l-2.16,0c-0.064,0 -0.125,0.026 -0.17,0.071c-0.045,0.045 -0.07,0.106 -0.07,0.169l-0,4.32c-0,0.064 0.025,0.125 0.07,0.17c0.045,0.045 0.106,0.07 0.17,0.07l2.16,0c0.191,0 0.374,0.076 0.509,0.211c0.135,0.135 0.211,0.318 0.211,0.509c-0,0.064 0.025,0.125 0.07,0.17c0.045,0.045 0.106,0.07 0.17,0.07c0.063,0 0.124,-0.025 0.169,-0.07c0.045,-0.045 0.071,-0.106 0.071,-0.17c-0,-0.191 0.076,-0.374 0.211,-0.509c0.135,-0.135 0.318,-0.211 0.509,-0.211l2.16,0c0.063,0 0.124,-0.025 0.169,-0.07c0.045,-0.045 0.071,-0.106 0.071,-0.17l-0,-4.32c-0,-0.063 -0.026,-0.124 -0.071,-0.169c-0.045,-0.045 -0.106,-0.071 -0.169,-0.071Zm-4.08,4.32l-1.92,0l-0,-3.84l1.92,0c0.191,0 0.374,0.076 0.509,0.211c0.135,0.135 0.211,0.318 0.211,0.509l-0,3.36c-0.208,-0.156 -0.461,-0.24 -0.72,-0.24Zm3.84,0l-1.92,0c-0.26,-0 -0.513,0.084 -0.72,0.24l-0,-3.36c-0,-0.191 0.076,-0.374 0.211,-0.509c0.135,-0.135 0.318,-0.211 0.509,-0.211l1.92,0l-0,3.84Z" style="fill:#fff;fill-rule:nonzero;"/><g id="g523"></g><g id="g5231" serif:id="g523"></g><g id="g213"></g><g id="g241"></g><g id="g297"></g><g id="g327"></g><g id="g364"></g><g id="g392"></g></svg>