<?xml version="1.0" encoding="UTF-8" standalone="no"?><!DOCTYPE svg PUBLIC "-//W3C//DTD SVG 1.1//EN" "http://www.w3.org/Graphics/SVG/1.1/DTD/svg11.dtd"><svg width="100%" height="100%" viewBox="-0.6 -0.6 9 9" version="1.1" xmlns="http://www.w3.org/2000/svg" xmlns:xlink="http://www.w3.org/1999/xlink" xml:space="preserve" xmlns:serif="http://www.serif.com/" style="fill-rule:evenodd;clip-rule:evenodd;stroke-linejoin:round;stroke-miterlimit:2;"><rect id="Artboard14" x="0" y="0" width="7.2" height="7.2" style="fill:none;"/><path d="M6.24,2.88c0,0.064 -0.026,0.125 -0.07,0.17c-0.045,0.045 -0.105,0.07 -0.17,0.07c-0.065,0 -0.125,-0.025 -0.17,-0.07c-0.044,-0.045 -0.07,-0.106 -0.07,-0.17c0,-0.573 -0.228,-1.122 -0.634,-1.527c-0.403,-0.405 -0.952,-0.633 -1.526,-0.633c-0.574,-0 -1.123,0.228 -1.526,0.633c-0.406,0.405 -0.634,0.954 -0.634,1.527c0,0.801 0.257,1.048 0.528,1.309c0.259,0.251 0.552,0.533 0.552,1.211c0,0.286 0.113,0.561 0.317,0.764c0.201,0.202 0.477,0.316 0.763,0.316c0.307,-0 0.554,-0.125 0.775,-0.393c0.019,-0.025 0.043,-0.045 0.072,-0.061c0.029,-0.015 0.058,-0.025 0.091,-0.028c0.032,-0.004 0.063,-0.001 0.094,0.009c0.031,0.009 0.06,0.024 0.084,0.044c0.024,0.021 0.046,0.046 0.06,0.074c0.014,0.028 0.024,0.059 0.026,0.091c0.003,0.032 -0.002,0.064 -0.012,0.094c-0.009,0.03 -0.024,0.058 -0.045,0.083c-0.31,0.376 -0.694,0.567 -1.145,0.567c-0.413,-0 -0.811,-0.165 -1.102,-0.457c-0.292,-0.293 -0.458,-0.689 -0.458,-1.103c0,-0.474 -0.17,-0.638 -0.406,-0.865c-0.3,-0.29 -0.674,-0.65 -0.674,-1.655c0,-0.7 0.278,-1.372 0.773,-1.867c0.494,-0.495 1.166,-0.773 1.867,-0.773c0.701,-0 1.373,0.278 1.867,0.773c0.495,0.495 0.773,1.167 0.773,1.867Zm-1.145,1.712c-0.026,-0.015 -0.057,-0.026 -0.089,-0.03c-0.031,-0.004 -0.062,-0.002 -0.093,0.006c-0.029,0.008 -0.058,0.022 -0.084,0.041c-0.024,0.02 -0.046,0.044 -0.06,0.071c-0.027,0.046 -0.067,0.082 -0.118,0.102c-0.048,0.02 -0.103,0.024 -0.153,0.01c-0.051,-0.014 -0.096,-0.044 -0.128,-0.086c-0.033,-0.042 -0.05,-0.093 -0.05,-0.146c0,-0.28 0.144,-0.473 0.312,-0.696c0.192,-0.255 0.408,-0.544 0.408,-0.984c0,-0.382 -0.151,-0.748 -0.422,-1.018c-0.269,-0.27 -0.636,-0.422 -1.018,-0.422c-0.382,-0 -0.749,0.152 -1.018,0.422c-0.271,0.27 -0.422,0.636 -0.422,1.018c0,0.064 0.026,0.125 0.07,0.17c0.045,0.045 0.105,0.07 0.17,0.07c0.065,0 0.125,-0.025 0.17,-0.07c0.044,-0.045 0.07,-0.106 0.07,-0.17c0,-0.255 0.101,-0.499 0.281,-0.679c0.18,-0.18 0.425,-0.281 0.679,-0.281c0.254,-0 0.499,0.101 0.679,0.281c0.18,0.18 0.281,0.424 0.281,0.679c0,0.28 -0.144,0.473 -0.312,0.696c-0.192,0.255 -0.408,0.544 -0.408,0.984c0,0.158 0.053,0.312 0.149,0.438c0.096,0.126 0.233,0.216 0.384,0.257c0.153,0.041 0.317,0.031 0.463,-0.03c0.146,-0.061 0.269,-0.168 0.348,-0.305c0.031,-0.055 0.041,-0.12 0.024,-0.182c-0.017,-0.061 -0.058,-0.114 -0.113,-0.146Z" style="fill:#fff;fill-rule:nonzero;"/><g id="g523"></g><g id="g5231" serif:id="g523"></g><g id="g213"></g><g id="g241"></g><g id="g297"></g><g id="g327"></g><g id="g364"></g><g id="g392"></g></svg>