<?xml version="1.0" encoding="UTF-8" standalone="no"?><!DOCTYPE svg PUBLIC "-//W3C//DTD SVG 1.1//EN" "http://www.w3.org/Graphics/SVG/1.1/DTD/svg11.dtd"><svg width="100%" height="100%" viewBox="0 0 8 8" version="1.1" xmlns="http://www.w3.org/2000/svg" xmlns:xlink="http://www.w3.org/1999/xlink" xml:space="preserve" xmlns:serif="http://www.serif.com/" style="fill-rule:evenodd;clip-rule:evenodd;stroke-linejoin:round;stroke-miterlimit:2;"><rect id="Artboard19" x="0" y="0" width="7.2" height="7.2" style="fill:none;"/><path d="M6.423,6.102l-1.459,-0c0.636,-0.401 1.105,-1.018 1.323,-1.737c0.217,-0.719 0.167,-1.493 -0.14,-2.179c-0.308,-0.685 -0.853,-1.237 -1.535,-1.553c-0.681,-0.315 -1.454,-0.375 -2.176,-0.166c-0.722,0.209 -1.345,0.671 -1.753,1.302c-0.408,0.631 -0.575,1.388 -0.469,2.132c0.105,0.744 0.476,1.425 1.044,1.917c0.567,0.493 1.294,0.764 2.045,0.764l3.12,-0c0.064,-0 0.125,-0.026 0.17,-0.071c0.045,-0.045 0.07,-0.106 0.07,-0.169c0,-0.064 -0.025,-0.125 -0.07,-0.17c-0.045,-0.045 -0.106,-0.07 -0.17,-0.07Zm-5.76,-2.64c0,-0.523 0.155,-1.033 0.445,-1.467c0.29,-0.434 0.702,-0.773 1.185,-0.973c0.482,-0.199 1.013,-0.252 1.525,-0.15c0.512,0.102 0.983,0.354 1.352,0.723c0.369,0.369 0.62,0.839 0.722,1.351c0.102,0.513 0.05,1.043 -0.15,1.526c-0.2,0.482 -0.538,0.894 -0.972,1.185c-0.434,0.29 -0.945,0.445 -1.467,0.445c-0.7,-0.001 -1.371,-0.28 -1.866,-0.775c-0.495,-0.495 -0.773,-1.166 -0.774,-1.865Zm2.64,-0.72c0.142,-0 0.282,-0.043 0.4,-0.122c0.118,-0.079 0.211,-0.191 0.265,-0.323c0.055,-0.132 0.069,-0.276 0.041,-0.416c-0.028,-0.14 -0.096,-0.268 -0.197,-0.369c-0.101,-0.1 -0.229,-0.169 -0.368,-0.197c-0.14,-0.027 -0.285,-0.013 -0.416,0.041c-0.132,0.055 -0.244,0.147 -0.324,0.265c-0.079,0.119 -0.121,0.258 -0.121,0.401c0,0.19 0.076,0.374 0.211,0.509c0.135,0.135 0.318,0.211 0.509,0.211Zm0,-0.96c0.048,-0 0.094,0.014 0.133,0.04c0.04,0.026 0.071,0.064 0.089,0.108c0.018,0.044 0.023,0.092 0.013,0.138c-0.009,0.047 -0.032,0.09 -0.065,0.123c-0.034,0.034 -0.077,0.057 -0.123,0.066c-0.047,0.009 -0.095,0.004 -0.139,-0.014c-0.044,-0.018 -0.081,-0.049 -0.107,-0.088c-0.027,-0.04 -0.041,-0.086 -0.041,-0.133c0,-0.064 0.025,-0.125 0.07,-0.17c0.045,-0.045 0.106,-0.07 0.17,-0.07Zm0.72,3.12c0,-0.143 -0.042,-0.282 -0.121,-0.401c-0.079,-0.118 -0.192,-0.21 -0.323,-0.265c-0.132,-0.054 -0.277,-0.068 -0.416,-0.041c-0.14,0.028 -0.268,0.097 -0.369,0.197c-0.101,0.101 -0.169,0.229 -0.197,0.369c-0.028,0.14 -0.014,0.284 0.041,0.416c0.054,0.132 0.147,0.244 0.265,0.323c0.118,0.079 0.258,0.122 0.4,0.122c0.191,-0 0.374,-0.076 0.509,-0.211c0.135,-0.135 0.211,-0.319 0.211,-0.509Zm-0.96,-0c0,-0.048 0.014,-0.094 0.041,-0.134c0.026,-0.039 0.063,-0.07 0.107,-0.088c0.044,-0.018 0.092,-0.023 0.139,-0.014c0.046,0.009 0.089,0.032 0.123,0.066c0.033,0.033 0.056,0.076 0.065,0.123c0.01,0.046 0.005,0.094 -0.013,0.138c-0.018,0.044 -0.049,0.082 -0.089,0.108c-0.039,0.026 -0.085,0.041 -0.133,0.041c-0.064,-0 -0.125,-0.026 -0.17,-0.071c-0.045,-0.045 -0.07,-0.106 -0.07,-0.169Zm1.68,-0.72c0.142,-0 0.282,-0.043 0.4,-0.122c0.118,-0.079 0.211,-0.191 0.265,-0.323c0.055,-0.132 0.069,-0.276 0.041,-0.416c-0.028,-0.14 -0.096,-0.268 -0.197,-0.369c-0.101,-0.1 -0.229,-0.169 -0.368,-0.197c-0.14,-0.027 -0.285,-0.013 -0.416,0.041c-0.132,0.055 -0.244,0.147 -0.324,0.265c-0.079,0.119 -0.121,0.258 -0.121,0.401c0,0.19 0.076,0.374 0.211,0.509c0.135,0.135 0.318,0.211 0.509,0.211Zm0,-0.96c0.048,-0 0.094,0.014 0.133,0.04c0.04,0.026 0.071,0.064 0.089,0.108c0.018,0.044 0.023,0.092 0.013,0.138c-0.009,0.047 -0.032,0.09 -0.065,0.123c-0.034,0.034 -0.077,0.057 -0.123,0.066c-0.047,0.009 -0.095,0.004 -0.139,-0.014c-0.044,-0.018 -0.081,-0.049 -0.107,-0.088c-0.027,-0.04 -0.041,-0.086 -0.041,-0.133c0,-0.064 0.025,-0.125 0.07,-0.17c0.045,-0.045 0.106,-0.07 0.17,-0.07Zm-2.88,-0.48c-0.142,-0 -0.282,0.042 -0.4,0.121c-0.118,0.079 -0.211,0.191 -0.265,0.323c-0.055,0.132 -0.069,0.276 -0.041,0.416c0.028,0.14 0.096,0.268 0.197,0.369c0.101,0.1 0.229,0.169 0.369,0.197c0.139,0.027 0.284,0.013 0.416,-0.041c0.131,-0.055 0.244,-0.147 0.323,-0.265c0.079,-0.119 0.121,-0.258 0.121,-0.4c0,-0.191 -0.076,-0.375 -0.211,-0.51c-0.135,-0.135 -0.318,-0.21 -0.509,-0.21Zm0,0.96c-0.047,-0 -0.094,-0.015 -0.133,-0.041c-0.04,-0.026 -0.07,-0.064 -0.089,-0.108c-0.018,-0.044 -0.023,-0.092 -0.013,-0.138c0.009,-0.047 0.032,-0.09 0.065,-0.123c0.034,-0.034 0.077,-0.057 0.123,-0.066c0.047,-0.009 0.095,-0.004 0.139,0.014c0.044,0.018 0.081,0.049 0.108,0.088c0.026,0.04 0.04,0.086 0.04,0.134c0,0.063 -0.025,0.124 -0.07,0.169c-0.045,0.045 -0.106,0.071 -0.17,0.071Z" style="fill:#fff;fill-rule:nonzero;"/><g id="g523"></g><g id="g5231" serif:id="g523"></g><g id="g213"></g><g id="g241"></g><g id="g297"></g><g id="g327"></g><g id="g364"></g><g id="g392"></g></svg>