<?xml version="1.0" encoding="UTF-8" standalone="no"?><!DOCTYPE svg PUBLIC "-//W3C//DTD SVG 1.1//EN" "http://www.w3.org/Graphics/SVG/1.1/DTD/svg11.dtd"><svg width="100%" height="100%" viewBox="0 0 8 8" version="1.1" xmlns="http://www.w3.org/2000/svg" xmlns:xlink="http://www.w3.org/1999/xlink" xml:space="preserve" xmlns:serif="http://www.serif.com/" style="fill-rule:evenodd;clip-rule:evenodd;stroke-linejoin:round;stroke-miterlimit:2;"><rect id="Artboard16" x="0" y="-0" width="7.2" height="7.2" style="fill:none;"/><path d="M3.6,4.92c0.382,0 0.749,-0.151 1.018,-0.422c0.271,-0.269 0.422,-0.636 0.422,-1.018l0,-1.92c0,-0.382 -0.151,-0.748 -0.422,-1.018c-0.269,-0.27 -0.636,-0.422 -1.018,-0.422c-0.382,0 -0.749,0.152 -1.018,0.422c-0.271,0.27 -0.422,0.636 -0.422,1.018l0,1.92c0,0.382 0.151,0.749 0.422,1.018c0.269,0.271 0.636,0.422 1.018,0.422Zm-0.96,-3.36c0,-0.255 0.101,-0.499 0.281,-0.679c0.18,-0.18 0.425,-0.281 0.679,-0.281c0.254,-0 0.499,0.101 0.679,0.281c0.18,0.18 0.281,0.424 0.281,0.679l0,1.92c0,0.254 -0.101,0.499 -0.281,0.679c-0.18,0.18 -0.425,0.281 -0.679,0.281c-0.254,-0 -0.499,-0.101 -0.679,-0.281c-0.18,-0.18 -0.281,-0.425 -0.281,-0.679l0,-1.92Zm1.2,4.308l0,0.972c0,0.065 -0.026,0.125 -0.07,0.17c-0.045,0.044 -0.105,0.07 -0.17,0.07c-0.065,0 -0.125,-0.026 -0.17,-0.07c-0.044,-0.045 -0.07,-0.105 -0.07,-0.17l0,-0.972c-0.593,-0.06 -1.14,-0.338 -1.538,-0.778c-0.401,-0.441 -0.622,-1.015 -0.622,-1.61c0,-0.065 0.026,-0.125 0.07,-0.17c0.045,-0.044 0.105,-0.07 0.17,-0.07c0.065,0 0.125,0.026 0.17,0.07c0.044,0.045 0.07,0.105 0.07,0.17c0,0.509 0.202,0.998 0.562,1.358c0.36,0.36 0.849,0.562 1.358,0.562c0.509,0 0.998,-0.202 1.358,-0.562c0.36,-0.36 0.562,-0.849 0.562,-1.358c0,-0.065 0.026,-0.125 0.07,-0.17c0.045,-0.044 0.105,-0.07 0.17,-0.07c0.065,0 0.125,0.026 0.17,0.07c0.044,0.045 0.07,0.105 0.07,0.17c0,0.595 -0.221,1.169 -0.622,1.61c-0.398,0.44 -0.945,0.718 -1.538,0.778Z" style="fill:#fff;fill-rule:nonzero;"/><g id="g523"></g><g id="g5231" serif:id="g523"></g><g id="g213"></g><g id="g241"></g><g id="g297"></g><g id="g327"></g><g id="g364"></g><g id="g392"></g></svg>