<?xml version="1.0" encoding="UTF-8" standalone="no"?><!DOCTYPE svg PUBLIC "-//W3C//DTD SVG 1.1//EN" "http://www.w3.org/Graphics/SVG/1.1/DTD/svg11.dtd"><svg width="100%" height="100%" viewBox="0 0 16 16" version="1.1" xmlns="http://www.w3.org/2000/svg" xmlns:xlink="http://www.w3.org/1999/xlink" xml:space="preserve" xmlns:serif="http://www.serif.com/" style="fill-rule:evenodd;clip-rule:evenodd;stroke-linejoin:round;stroke-miterlimit:2;"><rect id="Artboard1" x="0" y="0" width="15.949" height="15.949" style="fill:none;"/><g id="g194"><path id="path132" d="M7.608,13.016c-1.259,-0.099 -2.409,-0.639 -3.274,-1.536c-0.745,-0.773 -1.203,-1.711 -1.365,-2.796c-0.05,-0.338 -0.06,-0.973 -0.02,-1.295c0.14,-1.124 0.615,-2.126 1.386,-2.925c0.816,-0.845 1.87,-1.368 3.055,-1.516c0.109,-0.014 0.38,-0.025 0.603,-0.024c0.71,0.002 1.304,0.121 1.953,0.393c1.466,0.614 2.581,1.935 2.949,3.493c0.135,0.572 0.168,1.31 0.083,1.874c-0.144,0.953 -0.506,1.774 -1.103,2.501c-0.799,0.974 -1.928,1.609 -3.18,1.788c-0.32,0.046 -0.803,0.065 -1.087,0.043Zm0.904,-0.942c1.364,-0.188 2.532,-1.016 3.15,-2.233c0.421,-0.83 0.55,-1.791 0.363,-2.709c-0.118,-0.583 -0.403,-1.199 -0.786,-1.701c-0.127,-0.167 -0.479,-0.526 -0.655,-0.668c-0.386,-0.311 -0.847,-0.563 -1.313,-0.716c-0.148,-0.049 -0.274,-0.089 -0.279,-0.089c-0.006,-0 -0.01,0.218 -0.01,0.484l0,0.485l-2.017,-0l0,-0.485c0,-0.266 -0.004,-0.484 -0.01,-0.484c-0.005,-0 -0.131,0.04 -0.279,0.089c-0.935,0.307 -1.748,0.959 -2.258,1.811c-0.697,1.161 -0.769,2.633 -0.19,3.871c0.311,0.666 0.84,1.278 1.463,1.693c0.482,0.321 1.088,0.554 1.666,0.642c0.321,0.048 0.845,0.053 1.155,0.01Zm-0.647,-0.9c-0.474,-0.062 -0.731,-0.643 -0.463,-1.045c0.301,-0.45 0.959,-0.4 1.189,0.091c0.051,0.109 0.06,0.152 0.06,0.283c0,0.131 -0.009,0.175 -0.059,0.28c-0.135,0.285 -0.41,0.433 -0.727,0.391Zm-1.889,-0.697c-0.143,-0.033 -0.223,-0.078 -0.327,-0.181c-0.339,-0.339 -0.234,-0.911 0.205,-1.114c0.09,-0.041 0.142,-0.052 0.261,-0.051c0.081,-0 0.184,0.012 0.227,0.026c0.133,0.045 0.28,0.155 0.352,0.265c0.093,0.14 0.121,0.235 0.121,0.409c0,0.119 -0.01,0.171 -0.052,0.261c-0.138,0.3 -0.465,0.46 -0.787,0.385Zm3.673,0.005c-0.351,-0.083 -0.582,-0.447 -0.508,-0.802c0.032,-0.155 0.078,-0.241 0.189,-0.352c0.11,-0.11 0.197,-0.157 0.352,-0.189c0.226,-0.046 0.45,0.022 0.616,0.187c0.163,0.164 0.228,0.375 0.187,0.604c-0.029,0.16 -0.079,0.258 -0.187,0.366c-0.107,0.106 -0.205,0.158 -0.356,0.186c-0.134,0.024 -0.188,0.024 -0.293,-0l0,-0Zm-4.365,-1.844c-0.222,-0.063 -0.365,-0.183 -0.46,-0.386c-0.05,-0.105 -0.059,-0.149 -0.059,-0.28c-0,-0.132 0.009,-0.174 0.06,-0.28c0.1,-0.21 0.24,-0.328 0.455,-0.383c0.226,-0.058 0.478,0.013 0.645,0.18c0.264,0.264 0.266,0.693 0.005,0.962c-0.152,0.157 -0.448,0.243 -0.646,0.187l0,-0Zm5.098,0.006c-0.475,-0.08 -0.717,-0.645 -0.448,-1.047c0.095,-0.143 0.271,-0.268 0.408,-0.29c0.35,-0.058 0.638,0.084 0.78,0.383c0.049,0.104 0.058,0.147 0.058,0.282c0,0.136 -0.009,0.178 -0.058,0.283c-0.074,0.155 -0.18,0.261 -0.331,0.331c-0.133,0.061 -0.272,0.081 -0.409,0.058Z" style="fill:#fff;fill-rule:nonzero;"/></g></svg>