<?xml version="1.0" encoding="UTF-8" standalone="no"?><!DOCTYPE svg PUBLIC "-//W3C//DTD SVG 1.1//EN" "http://www.w3.org/Graphics/SVG/1.1/DTD/svg11.dtd"><svg width="100%" height="100%" viewBox="0 0 5 5" version="1.1" xmlns="http://www.w3.org/2000/svg" xmlns:xlink="http://www.w3.org/1999/xlink" xml:space="preserve" xmlns:serif="http://www.serif.com/" style="fill-rule:evenodd;clip-rule:evenodd;stroke-linejoin:round;stroke-miterlimit:2;"><rect id="Artboard3" x="-0" y="-0" width="4.608" height="4.608" style="fill:none;"/><path d="M4.112,0.173l-3.6,-0c-0.096,-0 -0.187,0.037 -0.255,0.105c-0.067,0.068 -0.105,0.159 -0.105,0.255l-0,3.6c-0,0.095 0.038,0.187 0.105,0.254c0.068,0.068 0.159,0.106 0.255,0.106l3.6,-0c0.096,-0 0.187,-0.038 0.254,-0.106c0.067,-0.067 0.106,-0.159 0.106,-0.254l-0,-3.6c-0,-0.096 -0.039,-0.187 -0.106,-0.255c-0.067,-0.068 -0.158,-0.105 -0.254,-0.105Zm-2.88,0.36l0.54,-0l-0,1.98l-0.54,-0l-0,-1.98Zm0.72,2.34c0.048,-0 0.093,-0.019 0.127,-0.053c0.034,-0.034 0.053,-0.08 0.053,-0.127l-0,-2.16l0.36,-0l-0,2.16c-0,0.047 0.019,0.093 0.053,0.127c0.033,0.034 0.079,0.053 0.127,0.053l0.18,-0l-0,1.26l-1.08,-0l-0,-1.26l0.18,-0Zm0.9,-0.36l-0,-1.98l0.54,-0l-0,1.98l-0.54,-0Zm-2.34,-1.98l0.36,-0l-0,2.16c-0,0.047 0.019,0.093 0.053,0.127c0.033,0.034 0.079,0.053 0.127,0.053l0.36,-0l-0,1.26l-0.9,-0l-0,-3.6Zm3.6,3.6l-0.9,-0l-0,-1.26l0.36,-0c0.048,-0 0.093,-0.019 0.127,-0.053c0.034,-0.034 0.053,-0.08 0.053,-0.127l-0,-2.16l0.36,-0l-0,3.6Z" style="fill:#fff;fill-rule:nonzero;"/><g id="g523"></g><g id="g5231" serif:id="g523"></g><g id="g213"></g><g id="g241"></g><g id="g297"></g><g id="g327"></g><g id="g364"></g><g id="g392"></g></svg>