<?xml version="1.0" encoding="UTF-8" standalone="no"?><!DOCTYPE svg PUBLIC "-//W3C//DTD SVG 1.1//EN" "http://www.w3.org/Graphics/SVG/1.1/DTD/svg11.dtd"><svg width="100%" height="100%" viewBox="-1 -1 9 9" version="1.1" xmlns="http://www.w3.org/2000/svg" xmlns:xlink="http://www.w3.org/1999/xlink" xml:space="preserve" xmlns:serif="http://www.serif.com/" style="fill-rule:evenodd;clip-rule:evenodd;stroke-linejoin:round;stroke-miterlimit:2;"><rect id="Artboard13" x="-0" y="0" width="6.24" height="6.48" style="fill:none;"/><clipPath id="_clip1"><rect x="-0" y="0" width="6.24" height="6.48"/></clipPath><g clip-path="url(#_clip1)"><path d="M2.996,0.628l0,-0.24c0,-0.065 0.027,-0.125 0.07,-0.171c0.045,-0.043 0.105,-0.069 0.17,-0.069c0.065,-0 0.125,0.026 0.171,0.069c0.043,0.046 0.069,0.106 0.069,0.171l0,0.24c0,0.064 -0.026,0.124 -0.069,0.17c-0.046,0.043 -0.106,0.07 -0.171,0.07c-0.065,-0 -0.125,-0.027 -0.17,-0.07c-0.043,-0.046 -0.07,-0.106 -0.07,-0.17Zm2.4,0.96c0.031,-0 0.063,-0.008 0.091,-0.02c0.029,-0.012 0.056,-0.028 0.08,-0.05l0.24,-0.24c0.045,-0.046 0.069,-0.106 0.069,-0.17c0,-0.065 -0.024,-0.125 -0.069,-0.171c-0.046,-0.045 -0.106,-0.069 -0.171,-0.069c-0.065,-0 -0.125,0.024 -0.17,0.069l-0.24,0.24c-0.034,0.034 -0.055,0.077 -0.065,0.123c-0.01,0.048 -0.005,0.096 0.014,0.139c0.017,0.045 0.048,0.081 0.087,0.108c0.041,0.026 0.086,0.041 0.134,0.041Zm-4.49,-0.07c0.024,0.022 0.05,0.038 0.079,0.05c0.029,0.012 0.06,0.02 0.091,0.02c0.031,-0 0.063,-0.008 0.091,-0.02c0.029,-0.012 0.056,-0.028 0.08,-0.05c0.021,-0.024 0.038,-0.05 0.05,-0.079c0.012,-0.029 0.019,-0.06 0.019,-0.091c0,-0.032 -0.007,-0.063 -0.019,-0.092c-0.012,-0.028 -0.029,-0.055 -0.05,-0.079l-0.24,-0.24c-0.046,-0.045 -0.106,-0.069 -0.171,-0.069c-0.065,-0 -0.125,0.024 -0.17,0.069c-0.046,0.046 -0.07,0.106 -0.07,0.171c0,0.064 0.024,0.124 0.07,0.17l0.24,0.24Zm2.611,0.792c-0.031,-0.005 -0.065,-0.005 -0.094,0.002c-0.031,0.008 -0.062,0.022 -0.086,0.039c-0.026,0.019 -0.048,0.041 -0.065,0.069c-0.017,0.027 -0.029,0.056 -0.033,0.087c-0.005,0.031 -0.005,0.065 0.002,0.096c0.007,0.029 0.019,0.06 0.038,0.084c0.02,0.026 0.044,0.048 0.07,0.065c0.026,0.016 0.058,0.028 0.089,0.033c0.569,0.096 0.998,0.612 0.998,1.203c0,0.064 0.027,0.124 0.07,0.17c0.045,0.043 0.105,0.07 0.17,0.07c0.065,-0 0.125,-0.027 0.171,-0.07c0.043,-0.046 0.069,-0.106 0.069,-0.17c0,-0.824 -0.602,-1.544 -1.399,-1.678Zm2.839,3.118l0,0.72c0,0.127 -0.05,0.249 -0.141,0.338c-0.089,0.091 -0.212,0.142 -0.339,0.142l-5.28,-0c-0.127,-0 -0.249,-0.051 -0.338,-0.142c-0.091,-0.089 -0.142,-0.211 -0.142,-0.338l0,-0.72c0,-0.128 0.051,-0.25 0.142,-0.339c0.089,-0.091 0.211,-0.141 0.338,-0.141l0,-0.96c0,-0.348 0.07,-0.694 0.204,-1.016c0.132,-0.321 0.329,-0.614 0.576,-0.859c0.247,-0.245 0.54,-0.439 0.864,-0.571c0.322,-0.13 0.667,-0.197 1.015,-0.194c1.445,0.012 2.621,1.209 2.621,2.668l0,0.932c0.127,-0 0.25,0.05 0.339,0.141c0.091,0.089 0.141,0.211 0.141,0.339Zm-5.28,-0.48l4.32,-0l0,-0.932c0,-1.2 -0.962,-2.179 -2.143,-2.188l-0.017,-0c-0.573,-0 -1.123,0.228 -1.526,0.633c-0.406,0.403 -0.634,0.953 -0.634,1.527l0,0.96Zm4.8,1.2l0,-0.72l-5.28,-0l0,0.72l5.28,-0Z" style="fill:#fff;fill-rule:nonzero;"/></g><g id="g523"></g><g id="g5231" serif:id="g523"></g><g id="g213"></g><g id="g241"></g><g id="g297"></g><g id="g327"></g><g id="g364"></g><g id="g392"></g></svg>