<?xml version="1.0" encoding="UTF-8" standalone="no"?><!DOCTYPE svg PUBLIC "-//W3C//DTD SVG 1.1//EN" "http://www.w3.org/Graphics/SVG/1.1/DTD/svg11.dtd"><svg width="100%" height="100%" viewBox="-0.9 -0.6 9 9" version="1.1" xmlns="http://www.w3.org/2000/svg" xmlns:xlink="http://www.w3.org/1999/xlink" xml:space="preserve" xmlns:serif="http://www.serif.com/" style="fill-rule:evenodd;clip-rule:evenodd;stroke-linejoin:round;stroke-miterlimit:2;"><rect id="Artboard21" x="0" y="0" width="7.2" height="7.2" style="fill:none;"/><path d="M3.815,2.412c-0.02,-0.04 -0.051,-0.073 -0.089,-0.097c-0.038,-0.023 -0.081,-0.036 -0.126,-0.036c-0.045,0 -0.088,0.013 -0.126,0.036c-0.038,0.024 -0.069,0.057 -0.089,0.097l-2.16,4.32c-0.028,0.057 -0.033,0.123 -0.013,0.184c0.02,0.06 0.064,0.11 0.121,0.138c0.056,0.029 0.122,0.034 0.183,0.014c0.06,-0.021 0.11,-0.064 0.139,-0.121l0.415,-0.827l3.063,-0l0.414,0.827c0.02,0.04 0.05,0.073 0.088,0.097c0.037,0.023 0.081,0.036 0.125,0.036c0.041,-0 0.081,-0.011 0.117,-0.031c0.036,-0.02 0.066,-0.048 0.087,-0.083c0.022,-0.035 0.034,-0.075 0.036,-0.115c0.002,-0.041 -0.007,-0.082 -0.025,-0.119l-2.16,-4.32Zm-0.215,0.645l0.812,1.623l-1.624,-0l0.812,-1.623Zm-1.29,2.583l0.24,-0.48l2.103,-0l0.24,0.48l-2.583,-0Zm2.236,-2.948c0.025,-0.138 0.019,-0.28 -0.017,-0.416c-0.036,-0.135 -0.101,-0.262 -0.192,-0.369c-0.09,-0.108 -0.202,-0.194 -0.329,-0.254c-0.128,-0.059 -0.266,-0.09 -0.407,-0.09c-0.14,-0 -0.279,0.031 -0.406,0.09c-0.127,0.06 -0.24,0.146 -0.33,0.254c-0.09,0.107 -0.155,0.234 -0.191,0.369c-0.037,0.136 -0.042,0.278 -0.018,0.416c0.007,0.031 0.007,0.064 0.001,0.095c-0.007,0.031 -0.019,0.061 -0.037,0.088c-0.018,0.026 -0.041,0.049 -0.068,0.066c-0.027,0.018 -0.057,0.03 -0.088,0.035c-0.032,0.006 -0.064,0.005 -0.095,-0.002c-0.031,-0.007 -0.061,-0.02 -0.087,-0.038c-0.026,-0.019 -0.048,-0.042 -0.065,-0.069c-0.017,-0.028 -0.028,-0.058 -0.033,-0.089c-0.038,-0.208 -0.029,-0.421 0.025,-0.625c0.054,-0.204 0.151,-0.393 0.287,-0.555c0.135,-0.162 0.304,-0.292 0.495,-0.382c0.191,-0.089 0.399,-0.135 0.61,-0.135c0.211,-0 0.419,0.046 0.61,0.135c0.191,0.09 0.36,0.22 0.495,0.382c0.135,0.162 0.233,0.351 0.287,0.555c0.054,0.204 0.063,0.417 0.025,0.625c-0.01,0.055 -0.039,0.105 -0.082,0.141c-0.043,0.036 -0.098,0.056 -0.154,0.056c-0.014,-0 -0.029,-0.002 -0.043,-0.004c-0.031,-0.005 -0.061,-0.017 -0.087,-0.034c-0.027,-0.017 -0.05,-0.039 -0.068,-0.065c-0.018,-0.026 -0.031,-0.055 -0.038,-0.086c-0.006,-0.031 -0.007,-0.063 -0.001,-0.094l0.001,0Zm-2.861,1.274c-0.269,-0.356 -0.434,-0.78 -0.475,-1.225c-0.041,-0.444 0.043,-0.891 0.242,-1.291c0.199,-0.399 0.505,-0.735 0.885,-0.97c0.379,-0.235 0.817,-0.36 1.263,-0.36c0.446,0 0.884,0.125 1.263,0.36c0.38,0.235 0.686,0.571 0.885,0.97c0.199,0.4 0.283,0.847 0.242,1.291c-0.041,0.445 -0.205,0.869 -0.474,1.225c-0.039,0.05 -0.096,0.082 -0.158,0.09c-0.063,0.009 -0.126,-0.008 -0.176,-0.046c-0.051,-0.038 -0.084,-0.094 -0.093,-0.157c-0.009,-0.062 0.007,-0.126 0.044,-0.176c0.215,-0.285 0.346,-0.625 0.379,-0.98c0.033,-0.356 -0.034,-0.713 -0.193,-1.033c-0.16,-0.32 -0.405,-0.588 -0.708,-0.776c-0.304,-0.188 -0.654,-0.288 -1.011,-0.288c-0.357,0 -0.707,0.1 -1.01,0.288c-0.304,0.188 -0.549,0.456 -0.708,0.776c-0.16,0.32 -0.227,0.677 -0.194,1.033c0.033,0.355 0.164,0.695 0.379,0.98c0.038,0.05 0.053,0.114 0.044,0.176c-0.009,0.063 -0.042,0.119 -0.092,0.157c-0.051,0.038 -0.114,0.055 -0.176,0.046c-0.063,-0.008 -0.12,-0.04 -0.158,-0.09Z" style="fill:#fff;fill-rule:nonzero;"/><g id="g523"></g><g id="g5231" serif:id="g523"></g><g id="g213"></g><g id="g241"></g><g id="g297"></g><g id="g327"></g><g id="g364"></g><g id="g392"></g></svg>