<?xml version="1.0" encoding="UTF-8" standalone="no"?><!DOCTYPE svg PUBLIC "-//W3C//DTD SVG 1.1//EN" "http://www.w3.org/Graphics/SVG/1.1/DTD/svg11.dtd"><svg width="100%" height="100%" viewBox="-0.8 -0.8 6 6" version="1.1" xmlns="http://www.w3.org/2000/svg" xmlns:xlink="http://www.w3.org/1999/xlink" xml:space="preserve" xmlns:serif="http://www.serif.com/" style="fill-rule:evenodd;clip-rule:evenodd;stroke-linejoin:round;stroke-miterlimit:2;"><rect id="Artboard5" x="0" y="0" width="4.812" height="4.714" style="fill:none;"/><path d="M1.455,1.697l-1.08,-0c-0.047,-0 -0.093,-0.019 -0.127,-0.053c-0.034,-0.034 -0.053,-0.08 -0.053,-0.127l0,-1.08c0,-0.048 0.019,-0.094 0.053,-0.128c0.034,-0.033 0.08,-0.052 0.127,-0.052c0.048,-0 0.094,0.019 0.128,0.052c0.033,0.034 0.052,0.08 0.052,0.128l0,0.645l0.33,-0.329c0.401,-0.404 0.946,-0.631 1.515,-0.633l0.012,0c0.565,-0.001 1.107,0.22 1.509,0.615c0.033,0.034 0.052,0.079 0.052,0.126c-0,0.047 -0.019,0.092 -0.052,0.126c-0.032,0.033 -0.077,0.053 -0.124,0.054c-0.047,0.001 -0.093,-0.016 -0.127,-0.048c-0.336,-0.33 -0.787,-0.514 -1.258,-0.513l-0.01,0c-0.474,0.002 -0.928,0.191 -1.263,0.527l-0.329,0.33l0.645,-0c0.048,-0 0.094,0.019 0.128,0.052c0.033,0.034 0.052,0.08 0.052,0.128c0,0.047 -0.019,0.093 -0.052,0.127c-0.034,0.034 -0.08,0.053 -0.128,0.053Zm2.88,1.08l-1.08,-0c-0.047,-0 -0.093,0.019 -0.127,0.052c-0.034,0.034 -0.053,0.08 -0.053,0.128c0,0.047 0.019,0.093 0.053,0.127c0.034,0.034 0.08,0.053 0.127,0.053l0.646,-0l-0.329,0.329c-0.335,0.336 -0.789,0.525 -1.263,0.527l-0.01,-0c-0.471,0.001 -0.922,-0.183 -1.258,-0.512c-0.017,-0.018 -0.037,-0.031 -0.059,-0.04c-0.022,-0.01 -0.046,-0.015 -0.07,-0.015c-0.024,0 -0.047,0.005 -0.069,0.015c-0.022,0.009 -0.043,0.022 -0.059,0.04c-0.017,0.017 -0.03,0.037 -0.039,0.059c-0.009,0.023 -0.013,0.047 -0.012,0.071c0,0.024 0.005,0.047 0.015,0.069c0.01,0.022 0.024,0.042 0.042,0.058c0.402,0.395 0.944,0.616 1.509,0.615l0.011,-0c0.569,-0.002 1.115,-0.229 1.516,-0.633l0.329,-0.329l0,0.646c0,0.047 0.019,0.093 0.053,0.127c0.034,0.034 0.08,0.053 0.127,0.053c0.048,-0 0.094,-0.019 0.128,-0.053c0.033,-0.034 0.052,-0.08 0.052,-0.127l0,-1.08c0,-0.048 -0.019,-0.094 -0.052,-0.128c-0.034,-0.033 -0.08,-0.052 -0.128,-0.052Z" style="fill:#fff;fill-rule:nonzero;"/><g id="g523"></g><g id="g5231" serif:id="g523"></g><g id="g213"></g><g id="g241"></g><g id="g297"></g><g id="g327"></g><g id="g364"></g><g id="g392"></g></svg>