<?xml version="1.0" encoding="UTF-8" standalone="no"?><!DOCTYPE svg PUBLIC "-//W3C//DTD SVG 1.1//EN" "http://www.w3.org/Graphics/SVG/1.1/DTD/svg11.dtd"><svg width="100%" height="100%" viewBox="0 0 8 8" version="1.1" xmlns="http://www.w3.org/2000/svg" xmlns:xlink="http://www.w3.org/1999/xlink" xml:space="preserve" xmlns:serif="http://www.serif.com/" style="fill-rule:evenodd;clip-rule:evenodd;stroke-linejoin:round;stroke-miterlimit:2;"><rect id="Artboard19" x="0" y="0" width="7.2" height="7.2" style="fill:none;"/><clipPath id="_clip1"><rect x="0" y="0" width="7.2" height="7.2"/></clipPath><g clip-path="url(#_clip1)"><path d="M6.098,5.39l-0,1.241c-0,0.063 -0.025,0.124 -0.07,0.169c-0.045,0.045 -0.107,0.071 -0.17,0.071c-0.064,-0 -0.125,-0.026 -0.17,-0.071c-0.045,-0.045 -0.07,-0.106 -0.07,-0.169l-0,-1.241c-0.001,-0.308 -0.066,-0.612 -0.19,-0.894c-0.124,-0.283 -0.304,-0.536 -0.53,-0.745l-0,1.75c-0,0.052 -0.017,0.102 -0.048,0.143c-0.031,0.042 -0.074,0.072 -0.123,0.087c-0.05,0.015 -0.103,0.013 -0.151,-0.005c-0.049,-0.018 -0.09,-0.05 -0.119,-0.094l-0.32,-0.489c-0.003,-0.003 -0.005,-0.007 -0.007,-0.011c-0.047,-0.083 -0.125,-0.144 -0.217,-0.17c-0.092,-0.025 -0.191,-0.013 -0.274,0.034c-0.083,0.047 -0.144,0.125 -0.17,0.217c-0.025,0.092 -0.013,0.19 0.034,0.274l0.664,1.013c0.035,0.054 0.047,0.119 0.034,0.181c-0.013,0.062 -0.05,0.117 -0.103,0.152c-0.054,0.034 -0.119,0.047 -0.181,0.034c-0.062,-0.013 -0.117,-0.051 -0.152,-0.104l-0.667,-1.02l-0.008,-0.011c-0.103,-0.177 -0.138,-0.386 -0.098,-0.588c0.04,-0.201 0.152,-0.38 0.316,-0.504c0.163,-0.124 0.366,-0.185 0.57,-0.169c0.205,0.015 0.397,0.105 0.54,0.252l-0,-3.372l-0.48,-0c-0.064,-0 -0.125,-0.026 -0.17,-0.071c-0.045,-0.045 -0.07,-0.106 -0.07,-0.169c-0,-0.064 0.025,-0.125 0.07,-0.17c0.045,-0.045 0.106,-0.07 0.17,-0.07l0.48,-0c0.127,-0 0.249,0.05 0.339,0.14c0.09,0.09 0.141,0.212 0.141,0.34l-0,1.788c0.368,0.249 0.67,0.584 0.879,0.977c0.21,0.392 0.319,0.83 0.321,1.274Zm-4.32,-4.279c-0,-0.064 -0.025,-0.125 -0.07,-0.17c-0.045,-0.045 -0.107,-0.07 -0.17,-0.07l-0.48,-0c-0.127,-0 -0.249,0.05 -0.339,0.14c-0.09,0.09 -0.141,0.212 -0.141,0.34l-0,4.08c-0,0.063 0.025,0.124 0.07,0.169c0.045,0.045 0.106,0.071 0.17,0.071c0.063,-0 0.125,-0.026 0.17,-0.071c0.045,-0.045 0.07,-0.106 0.07,-0.169l-0,-4.08l0.48,-0c0.063,-0 0.125,-0.026 0.17,-0.071c0.045,-0.045 0.07,-0.106 0.07,-0.169Zm2.09,1.27c-0.023,-0.022 -0.049,-0.04 -0.078,-0.052c-0.029,-0.012 -0.061,-0.019 -0.092,-0.019c-0.032,0 -0.063,0.007 -0.092,0.019c-0.029,0.012 -0.056,0.03 -0.078,0.052l-0.55,0.55l-0,-3.02c-0,-0.064 -0.025,-0.125 -0.07,-0.17c-0.045,-0.045 -0.107,-0.07 -0.17,-0.07c-0.064,-0 -0.125,0.025 -0.17,0.07c-0.045,0.045 -0.07,0.106 -0.07,0.17l-0,3.02l-0.55,-0.55c-0.045,-0.045 -0.107,-0.071 -0.17,-0.071c-0.064,0 -0.125,0.026 -0.17,0.071c-0.045,0.045 -0.07,0.106 -0.07,0.17c-0,0.063 0.025,0.124 0.07,0.169l0.96,0.96c0.022,0.023 0.049,0.04 0.078,0.053c0.029,0.012 0.06,0.018 0.092,0.018c0.031,-0 0.063,-0.006 0.092,-0.018c0.029,-0.013 0.055,-0.03 0.078,-0.053l0.96,-0.96c0.022,-0.022 0.04,-0.048 0.052,-0.078c0.012,-0.029 0.018,-0.06 0.018,-0.091c0,-0.032 -0.006,-0.063 -0.018,-0.092c-0.012,-0.029 -0.03,-0.056 -0.052,-0.078Z" style="fill:#fff;fill-rule:nonzero;"/></g><g id="g523"></g><g id="g5231" serif:id="g523"></g><g id="g213"></g><g id="g241"></g><g id="g297"></g><g id="g327"></g><g id="g364"></g><g id="g392"></g></svg>