<?xml version="1.0" encoding="UTF-8" standalone="no"?><!DOCTYPE svg PUBLIC "-//W3C//DTD SVG 1.1//EN" "http://www.w3.org/Graphics/SVG/1.1/DTD/svg11.dtd"><svg width="100%" height="100%" viewBox="0 0 8 8" version="1.1" xmlns="http://www.w3.org/2000/svg" xmlns:xlink="http://www.w3.org/1999/xlink" xml:space="preserve" xmlns:serif="http://www.serif.com/" style="fill-rule:evenodd;clip-rule:evenodd;stroke-linejoin:round;stroke-miterlimit:2;"><rect id="Artboard10" x="0" y="0" width="7.2" height="7.2" style="fill:none;"/><path d="M6.17,2.23l-1.68,-1.68c-0.024,-0.022 -0.05,-0.04 -0.079,-0.052c-0.029,-0.012 -0.06,-0.018 -0.091,-0.018l-2.88,-0c-0.127,-0 -0.25,0.051 -0.338,0.141c-0.092,0.09 -0.142,0.212 -0.142,0.339l-0,5.28c-0,0.127 0.05,0.249 0.142,0.339c0.088,0.09 0.211,0.141 0.338,0.141l4.32,-0c0.127,-0 0.25,-0.051 0.338,-0.141c0.092,-0.09 0.142,-0.212 0.142,-0.339l-0,-3.84c-0,-0.031 -0.007,-0.063 -0.019,-0.092c-0.012,-0.029 -0.029,-0.056 -0.051,-0.078Zm-0.41,4.01l-4.32,-0l-0,-5.28l2.782,0l1.538,1.539l-0,3.741Zm-0.72,-3.12l-2.88,0c-0.065,0 -0.125,0.025 -0.17,0.07c-0.044,0.045 -0.07,0.106 -0.07,0.17l-0,2.16c-0,0.064 0.026,0.125 0.07,0.17c0.045,0.045 0.105,0.07 0.17,0.07l2.88,-0c0.065,-0 0.125,-0.025 0.17,-0.07c0.044,-0.045 0.07,-0.106 0.07,-0.17l-0,-2.16c-0,-0.064 -0.026,-0.125 -0.07,-0.17c-0.045,-0.045 -0.105,-0.07 -0.17,-0.07Zm-0.24,2.16l-0.48,0l-0,-0.96c-0,-0.064 -0.026,-0.125 -0.07,-0.17c-0.045,-0.045 -0.105,-0.07 -0.17,-0.07c-0.065,-0 -0.125,0.025 -0.17,0.07c-0.044,0.045 -0.07,0.106 -0.07,0.17l-0,0.96l-0.48,0l-0,-0.96c-0,-0.064 -0.026,-0.125 -0.07,-0.17c-0.045,-0.045 -0.105,-0.07 -0.17,-0.07c-0.065,-0 -0.125,0.025 -0.17,0.07c-0.044,0.045 -0.07,0.106 -0.07,0.17l-0,0.96l-0.48,0l-0,-1.68l2.4,-0l-0,1.68Z" style="fill:#fff;fill-rule:nonzero;"/><g id="g523"></g><g id="g5231" serif:id="g523"></g><g id="g213"></g><g id="g241"></g><g id="g297"></g><g id="g327"></g><g id="g364"></g><g id="g392"></g></svg>