<?xml version="1.0" encoding="UTF-8" standalone="no"?><!DOCTYPE svg PUBLIC "-//W3C//DTD SVG 1.1//EN" "http://www.w3.org/Graphics/SVG/1.1/DTD/svg11.dtd"><svg width="100%" height="100%" viewBox="-1 -1 14 14" version="1.1" xmlns="http://www.w3.org/2000/svg" xmlns:xlink="http://www.w3.org/1999/xlink" xml:space="preserve" xmlns:serif="http://www.serif.com/" style="fill-rule:evenodd;clip-rule:evenodd;stroke-linejoin:round;stroke-miterlimit:2;"><rect id="Artboard1" x="0" y="-0" width="12" height="12" style="fill:none;"/><g id="g194"><g><path id="path186" d="M4.598,8.843c-1.14,-0.239 -2.22,-0.777 -3.052,-1.52c-0.587,-0.524 -1.1,-1.143 -1.098,-1.328c0.002,-0.22 0.683,-1.01 1.291,-1.496c2.057,-1.646 4.926,-1.951 7.281,-0.776c0.892,0.446 1.73,1.124 2.297,1.859c0.264,0.342 0.271,0.364 0.189,0.563c-0.115,0.277 -1.162,1.328 -1.645,1.651c-1.566,1.046 -3.465,1.424 -5.263,1.047Zm2.165,-0.554c0.659,-0.208 1.249,-0.789 1.514,-1.492c0.203,-0.539 0.162,-1.323 -0.098,-1.847c-0.617,-1.249 -2.113,-1.725 -3.35,-1.068c-0.468,0.249 -0.781,0.593 -1.041,1.142c-0.179,0.378 -0.202,0.493 -0.199,0.979c0.003,0.594 0.156,1.046 0.514,1.515c0.572,0.75 1.694,1.075 2.66,0.771Zm-1.068,-0.807c-0.45,-0.083 -0.84,-0.373 -1.05,-0.784c-0.141,-0.274 -0.225,-0.762 -0.16,-0.93c0.038,-0.1 0.052,-0.098 0.141,0.03c0.35,0.499 1.145,0.414 1.414,-0.152c0.184,-0.389 0.019,-0.928 -0.32,-1.043c-0.118,-0.04 -0.114,-0.049 0.047,-0.104c0.113,-0.038 0.302,-0.033 0.525,0.013c1.393,0.289 1.656,2.2 0.391,2.835c-0.319,0.159 -0.628,0.201 -0.988,0.135l0,0Zm-2.104,0.313c-0.452,-0.592 -0.684,-1.534 -0.556,-2.255c0.082,-0.461 0.312,-1.01 0.556,-1.33c0.089,-0.117 0.145,-0.213 0.125,-0.213c-0.087,-0 -0.872,0.425 -1.231,0.667c-0.399,0.268 -1.391,1.21 -1.391,1.32c-0,0.122 0.72,0.854 1.163,1.182c0.379,0.281 1.354,0.842 1.464,0.842c0.018,0 -0.041,-0.095 -0.13,-0.213Zm5.914,-0.454c0.407,-0.276 1.359,-1.211 1.359,-1.335c-0,-0.296 -1.534,-1.553 -2.29,-1.877l-0.316,-0.135l0.106,0.147c0.203,0.282 0.45,0.796 0.535,1.117c0.194,0.722 0.05,1.664 -0.349,2.297c-0.101,0.161 -0.207,0.33 -0.235,0.376c-0.063,0.104 0.789,-0.318 1.19,-0.59Z" style="fill:#fff;fill-rule:nonzero;"/><circle cx="5.111" cy="5.065" r="0.361" style="fill:#fff;"/></g></g></svg>