<?xml version="1.0" encoding="UTF-8" standalone="no"?><!DOCTYPE svg PUBLIC "-//W3C//DTD SVG 1.1//EN" "http://www.w3.org/Graphics/SVG/1.1/DTD/svg11.dtd"><svg width="100%" height="100%" viewBox="0 1 9 9" version="1.1" xmlns="http://www.w3.org/2000/svg" xmlns:xlink="http://www.w3.org/1999/xlink" xml:space="preserve" xmlns:serif="http://www.serif.com/" style="fill-rule:evenodd;clip-rule:evenodd;stroke-linejoin:round;stroke-miterlimit:2;"><rect id="Artboard22" x="0" y="0" width="7.2" height="7.2" style="fill:none;"/><path d="M1.2,0.48l1.2,0c0.064,0 0.125,0.025 0.17,0.07c0.045,0.045 0.07,0.106 0.07,0.17c-0,0.064 -0.025,0.125 -0.07,0.17c-0.045,0.045 -0.106,0.07 -0.17,0.07l-0.96,0l-0,0.96c-0,0.064 -0.025,0.125 -0.07,0.17c-0.045,0.045 -0.106,0.07 -0.17,0.07c-0.064,0 -0.125,-0.025 -0.17,-0.07c-0.045,-0.045 -0.07,-0.106 -0.07,-0.17l-0,-1.2c-0,-0.064 0.025,-0.125 0.07,-0.17c0.045,-0.045 0.106,-0.07 0.17,-0.07Zm4.56,4.8l-0,0.96l-0.96,0c-0.064,0 -0.125,0.025 -0.17,0.07c-0.045,0.045 -0.07,0.106 -0.07,0.17c-0,0.064 0.025,0.125 0.07,0.17c0.045,0.045 0.106,0.07 0.17,0.07l1.2,0c0.064,0 0.125,-0.025 0.17,-0.07c0.045,-0.045 0.07,-0.106 0.07,-0.17l-0,-1.2c-0,-0.064 -0.025,-0.125 -0.07,-0.17c-0.045,-0.045 -0.106,-0.07 -0.17,-0.07c-0.064,0 -0.125,0.025 -0.17,0.07c-0.045,0.045 -0.07,0.106 -0.07,0.17Zm-1.2,-4.56c-0,0.064 0.025,0.125 0.07,0.17c0.045,0.045 0.106,0.07 0.17,0.07l0.96,0l-0,0.96c-0,0.064 0.025,0.125 0.07,0.17c0.045,0.045 0.106,0.07 0.17,0.07c0.064,0 0.125,-0.025 0.17,-0.07c0.045,-0.045 0.07,-0.106 0.07,-0.17l-0,-1.2c-0,-0.064 -0.025,-0.125 -0.07,-0.17c-0.045,-0.045 -0.106,-0.07 -0.17,-0.07l-1.2,0c-0.064,0 -0.125,0.025 -0.17,0.07c-0.045,0.045 -0.07,0.106 -0.07,0.17Zm-1.92,5.76c-0,-0.064 -0.025,-0.125 -0.07,-0.17c-0.045,-0.045 -0.106,-0.07 -0.17,-0.07l-0.96,0l-0,-0.96c-0,-0.064 -0.025,-0.125 -0.07,-0.17c-0.045,-0.045 -0.106,-0.07 -0.17,-0.07c-0.064,0 -0.125,0.025 -0.17,0.07c-0.045,0.045 -0.07,0.106 -0.07,0.17l-0,1.2c-0,0.064 0.025,0.125 0.07,0.17c0.045,0.045 0.106,0.07 0.17,0.07l1.2,0c0.064,0 0.125,-0.025 0.17,-0.07c0.045,-0.045 0.07,-0.106 0.07,-0.17Zm-0.48,-1.44c-0,0.064 0.025,0.125 0.07,0.17c0.045,0.045 0.106,0.07 0.17,0.07l2.4,0c0.064,0 0.125,-0.025 0.17,-0.07c0.045,-0.045 0.07,-0.106 0.07,-0.17c-0,-0.064 -0.025,-0.125 -0.07,-0.17c-0.045,-0.045 -0.106,-0.07 -0.17,-0.07l-2.4,0c-0.064,0 -0.125,0.025 -0.17,0.07c-0.045,0.045 -0.07,0.106 -0.07,0.17Zm2.64,-3.12l-2.4,0c-0.064,0 -0.125,0.025 -0.17,0.07c-0.045,0.045 -0.07,0.106 -0.07,0.17c-0,0.064 0.025,0.125 0.07,0.17c0.045,0.045 0.106,0.07 0.17,0.07l2.4,0c0.064,0 0.125,-0.025 0.17,-0.07c0.045,-0.045 0.07,-0.106 0.07,-0.17c-0,-0.064 -0.025,-0.125 -0.07,-0.17c-0.045,-0.045 -0.106,-0.07 -0.17,-0.07Zm-2.64,1.2c-0,0.064 0.025,0.125 0.07,0.17c0.045,0.045 0.106,0.07 0.17,0.07l2.4,0c0.064,0 0.125,-0.025 0.17,-0.07c0.045,-0.045 0.07,-0.106 0.07,-0.17c-0,-0.064 -0.025,-0.125 -0.07,-0.17c-0.045,-0.045 -0.106,-0.07 -0.17,-0.07l-2.4,0c-0.064,0 -0.125,0.025 -0.17,0.07c-0.045,0.045 -0.07,0.106 -0.07,0.17Zm-0,0.96c-0,0.064 0.025,0.125 0.07,0.17c0.045,0.045 0.106,0.07 0.17,0.07l2.4,0c0.064,0 0.125,-0.025 0.17,-0.07c0.045,-0.045 0.07,-0.106 0.07,-0.17c-0,-0.064 -0.025,-0.125 -0.07,-0.17c-0.045,-0.045 -0.106,-0.07 -0.17,-0.07l-2.4,0c-0.064,0 -0.125,0.025 -0.17,0.07c-0.045,0.045 -0.07,0.106 -0.07,0.17Z" style="fill:#fff;fill-rule:nonzero;"/><g id="g523"></g><g id="g5231" serif:id="g523"></g><g id="g213"></g><g id="g241"></g><g id="g297"></g><g id="g327"></g><g id="g364"></g><g id="g392"></g></svg>