<?xml version="1.0" encoding="UTF-8" standalone="no"?><!DOCTYPE svg PUBLIC "-//W3C//DTD SVG 1.1//EN" "http://www.w3.org/Graphics/SVG/1.1/DTD/svg11.dtd"><svg width="100%" height="100%" viewBox="-0.15 -0.5 7 7" version="1.1" xmlns="http://www.w3.org/2000/svg" xmlns:xlink="http://www.w3.org/1999/xlink" xml:space="preserve" xmlns:serif="http://www.serif.com/" style="fill-rule:evenodd;clip-rule:evenodd;stroke-linejoin:round;stroke-miterlimit:2;"><rect id="Artboard2" x="-0" y="-0" width="6.681" height="6.146" style="fill:none;"/><path d="M5.352,2.717l-0,0.551c-0,0.059 -0.026,0.114 -0.073,0.155c-0.046,0.042 -0.109,0.065 -0.175,0.065l-3.713,0c-0.066,0 -0.129,-0.023 -0.175,-0.065c-0.047,-0.041 -0.073,-0.096 -0.073,-0.155l0,-0.551c0,-0.058 0.026,-0.114 0.073,-0.155c0.046,-0.041 0.109,-0.065 0.175,-0.065l3.713,0c0.066,0 0.129,0.024 0.175,0.065c0.047,0.041 0.073,0.097 0.073,0.155Zm-3.961,0l-0,0.551l3.713,-0l0,-0.551l-3.713,0Zm3.961,-1.558l-0,0.551c-0,0.058 -0.026,0.114 -0.073,0.155c-0.046,0.041 -0.109,0.065 -0.175,0.065l-3.713,-0c-0.066,-0 -0.129,-0.024 -0.175,-0.065c-0.047,-0.041 -0.073,-0.097 -0.073,-0.155l0,-0.551c0,-0.059 0.026,-0.114 0.073,-0.155c0.046,-0.042 0.109,-0.065 0.175,-0.065l3.713,0c0.066,0 0.129,0.023 0.175,0.065c0.047,0.041 0.073,0.096 0.073,0.155Z" style="fill:#fff;fill-rule:nonzero;"/><path d="M5.352,4.887l-0,-0.55c-0,-0.059 -0.026,-0.115 -0.073,-0.156c-0.046,-0.041 -0.109,-0.065 -0.175,-0.065l-3.713,0c-0.066,0 -0.129,0.024 -0.175,0.065c-0.047,0.041 -0.073,0.097 -0.073,0.156l0,0.55c0,0.059 0.026,0.115 0.073,0.156c0.046,0.041 0.109,0.064 0.175,0.064l3.713,0c0.066,0 0.129,-0.023 0.175,-0.064c0.047,-0.041 0.073,-0.097 0.073,-0.156Zm-3.961,0l-0,-0.55l3.713,-0l0,0.55l-3.713,0Z" style="fill:#fff;fill-rule:nonzero;"/><g id="g523"></g><g id="g5231" serif:id="g523"></g><g id="g213"></g><g id="g241"></g><g id="g297"></g><g id="g327"></g><g id="g364"></g><g id="g392"></g></svg>