<?xml version="1.0" encoding="UTF-8" standalone="no"?><!DOCTYPE svg PUBLIC "-//W3C//DTD SVG 1.1//EN" "http://www.w3.org/Graphics/SVG/1.1/DTD/svg11.dtd"><svg width="100%" height="100%" viewBox="0 0 8 8" version="1.1" xmlns="http://www.w3.org/2000/svg" xmlns:xlink="http://www.w3.org/1999/xlink" xml:space="preserve" xmlns:serif="http://www.serif.com/" style="fill-rule:evenodd;clip-rule:evenodd;stroke-linejoin:round;stroke-miterlimit:2;"><rect id="Artboard18" x="-0" y="0" width="7.2" height="7.2" style="fill:none;"/><clipPath id="_clip1"><rect x="-0" y="0" width="7.2" height="7.2"/></clipPath><g clip-path="url(#_clip1)"><path d="M5.268,6.533c0.019,0.072 0.014,0.152 -0.014,0.22c-0.027,0.068 -0.077,0.12 -0.137,0.144c-0.063,0.024 -0.127,0.019 -0.185,-0.015c-0.055,-0.035 -0.098,-0.094 -0.12,-0.167l-0.24,-0.864c-0.01,-0.036 -0.014,-0.074 -0.012,-0.111c0.002,-0.038 0.012,-0.075 0.026,-0.109c0.012,-0.033 0.034,-0.064 0.056,-0.088c0.024,-0.025 0.052,-0.044 0.081,-0.056c0.031,-0.012 0.063,-0.017 0.094,-0.014c0.031,0.003 0.062,0.013 0.091,0.03c0.026,0.016 0.053,0.04 0.074,0.068c0.02,0.029 0.036,0.062 0.046,0.098l0.24,0.864Zm-1.668,-1.061c-0.065,0 -0.125,0.031 -0.17,0.085c-0.044,0.054 -0.07,0.127 -0.07,0.203l0,1.152c0,0.076 0.026,0.15 0.07,0.204c0.045,0.054 0.105,0.084 0.17,0.084c0.065,0 0.125,-0.03 0.17,-0.084c0.044,-0.054 0.07,-0.128 0.07,-0.204l0,-1.152c0,-0.076 -0.026,-0.149 -0.07,-0.203c-0.045,-0.054 -0.105,-0.085 -0.17,-0.085Zm-1.123,0.015c-0.031,-0.012 -0.063,-0.017 -0.094,-0.014c-0.031,0.003 -0.062,0.013 -0.091,0.03c-0.026,0.016 -0.053,0.04 -0.074,0.068c-0.02,0.029 -0.036,0.062 -0.046,0.098l-0.24,0.864c-0.019,0.072 -0.014,0.152 0.014,0.22c0.027,0.068 0.077,0.12 0.137,0.144c0.063,0.024 0.127,0.019 0.185,-0.015c0.055,-0.035 0.098,-0.094 0.12,-0.167l0.24,-0.864c0.01,-0.036 0.014,-0.074 0.012,-0.111c-0.002,-0.038 -0.012,-0.075 -0.026,-0.109c-0.012,-0.033 -0.034,-0.064 -0.056,-0.088c-0.024,-0.025 -0.052,-0.044 -0.081,-0.056Zm4.723,-2.607c0,0.584 -0.401,1.112 -1.13,1.487c-0.663,0.341 -1.539,0.529 -2.47,0.529c-0.931,0 -1.807,-0.188 -2.47,-0.529c-0.729,-0.375 -1.13,-0.903 -1.13,-1.487c0,-0.301 0.11,-0.748 0.636,-1.169c0.341,-0.274 0.806,-0.496 1.354,-0.643c0.153,-0.29 0.357,-0.535 0.6,-0.718c0.242,-0.182 0.516,-0.297 0.799,-0.335c0.285,-0.039 0.573,-0.001 0.842,0.112c0.271,0.112 0.516,0.296 0.718,0.538c0.105,0.123 0.197,0.259 0.273,0.407c1.241,0.336 1.978,1.007 1.978,1.808Zm-5.04,-0.546l0,0.108c0,0.065 0.017,0.128 0.05,0.179c0.034,0.051 0.082,0.086 0.135,0.101c0.41,0.109 0.833,0.162 1.255,0.158c0.422,0.005 0.842,-0.048 1.255,-0.157c0.053,-0.014 0.101,-0.05 0.135,-0.101c0.033,-0.05 0.05,-0.113 0.05,-0.178l0,-0.139c0,-0.229 -0.038,-0.456 -0.11,-0.667c-0.075,-0.211 -0.183,-0.403 -0.32,-0.563c-0.134,-0.161 -0.295,-0.288 -0.472,-0.373c-0.178,-0.086 -0.368,-0.128 -0.557,-0.125c-0.783,0.012 -1.421,0.801 -1.421,1.757Zm4.56,0.546c0,-0.421 -0.499,-0.859 -1.258,-1.137c0.039,0.184 0.058,0.372 0.058,0.562l0,0.141c0,0.195 -0.055,0.384 -0.156,0.536c-0.101,0.152 -0.242,0.259 -0.401,0.302c-0.446,0.119 -0.905,0.176 -1.363,0.172c-0.458,0.004 -0.914,-0.053 -1.363,-0.172c-0.159,-0.043 -0.3,-0.15 -0.401,-0.302c-0.101,-0.152 -0.156,-0.341 -0.156,-0.536l0,-0.11c0,-0.201 0.022,-0.401 0.065,-0.595c-0.763,0.276 -1.265,0.717 -1.265,1.139c0,0.682 1.282,1.44 3.12,1.44c1.838,0 3.12,-0.758 3.12,-1.44Z" style="fill:#fff;fill-rule:nonzero;"/></g><g id="g523"></g><g id="g5231" serif:id="g523"></g><g id="g213"></g><g id="g241"></g><g id="g297"></g><g id="g327"></g><g id="g364"></g><g id="g392"></g></svg>