<?xml version="1.0" encoding="UTF-8" standalone="no"?><!DOCTYPE svg PUBLIC "-//W3C//DTD SVG 1.1//EN" "http://www.w3.org/Graphics/SVG/1.1/DTD/svg11.dtd"><svg width="100%" height="100%" viewBox="0 0 5 6" version="1.1" xmlns="http://www.w3.org/2000/svg" xmlns:xlink="http://www.w3.org/1999/xlink" xml:space="preserve" xmlns:serif="http://www.serif.com/" style="fill-rule:evenodd;clip-rule:evenodd;stroke-linejoin:round;stroke-miterlimit:2;"><rect id="Artboard6" x="0" y="0" width="4.148" height="5.018" style="fill:none;"/><path d="M3.913,2.464c-0,0.041 -0.017,0.08 -0.045,0.109c-0.029,0.029 -0.068,0.045 -0.109,0.045l-3.385,0c-0.041,0 -0.08,-0.016 -0.109,-0.045c-0.029,-0.029 -0.045,-0.068 -0.045,-0.109c0,-0.041 0.016,-0.08 0.045,-0.109c0.029,-0.028 0.068,-0.045 0.109,-0.045l3.385,0c0.041,0 0.08,0.017 0.109,0.045c0.028,0.029 0.045,0.068 0.045,0.109Zm-2.353,-1.43l0.353,-0.352l-0,1.167c-0,0.041 0.016,0.08 0.045,0.109c0.028,0.028 0.068,0.045 0.108,0.045c0.041,-0 0.08,-0.017 0.109,-0.045c0.029,-0.029 0.045,-0.068 0.045,-0.109l0,-1.167l0.353,0.352c0.029,0.029 0.068,0.046 0.109,0.046c0.041,-0 0.08,-0.017 0.109,-0.046c0.029,-0.028 0.045,-0.068 0.045,-0.108c-0,-0.041 -0.016,-0.08 -0.045,-0.109l-0.616,-0.616c-0.014,-0.014 -0.031,-0.025 -0.05,-0.033c-0.018,-0.008 -0.038,-0.012 -0.059,-0.012c-0.02,0 -0.04,0.004 -0.058,0.012c-0.019,0.008 -0.036,0.019 -0.05,0.033l-0.616,0.616c-0.029,0.029 -0.045,0.068 -0.045,0.109c0,0.04 0.016,0.08 0.045,0.108c0.029,0.029 0.068,0.046 0.109,0.046c0.041,-0 0.08,-0.017 0.109,-0.046Zm1.013,2.86l-0.353,0.353l0,-1.167c0,-0.041 -0.016,-0.08 -0.045,-0.109c-0.029,-0.029 -0.068,-0.045 -0.109,-0.045c-0.04,-0 -0.08,0.016 -0.108,0.045c-0.029,0.029 -0.045,0.068 -0.045,0.109l-0,1.167l-0.353,-0.353c-0.029,-0.029 -0.068,-0.045 -0.109,-0.045c-0.041,-0 -0.08,0.016 -0.109,0.045c-0.029,0.029 -0.045,0.068 -0.045,0.109c0,0.041 0.016,0.08 0.045,0.109l0.616,0.615c0.014,0.014 0.031,0.026 0.05,0.033c0.018,0.008 0.038,0.012 0.058,0.012c0.021,0 0.041,-0.004 0.059,-0.012c0.019,-0.007 0.036,-0.019 0.05,-0.033l0.616,-0.615c0.029,-0.029 0.045,-0.068 0.045,-0.109c-0,-0.041 -0.016,-0.08 -0.045,-0.109c-0.029,-0.029 -0.068,-0.045 -0.109,-0.045c-0.041,-0 -0.08,0.016 -0.109,0.045Z" style="fill:#fff;fill-rule:nonzero;"/><g id="g523"></g><g id="g5231" serif:id="g523"></g><g id="g213"></g><g id="g241"></g><g id="g297"></g><g id="g327"></g><g id="g364"></g><g id="g392"></g></svg>