<?xml version="1.0" encoding="UTF-8" standalone="no"?><!DOCTYPE svg PUBLIC "-//W3C//DTD SVG 1.1//EN" "http://www.w3.org/Graphics/SVG/1.1/DTD/svg11.dtd"><svg width="100%" height="100%" viewBox="-1 0 9 9" version="1.1" xmlns="http://www.w3.org/2000/svg" xmlns:xlink="http://www.w3.org/1999/xlink" xml:space="preserve" xmlns:serif="http://www.serif.com/" style="fill-rule:evenodd;clip-rule:evenodd;stroke-linejoin:round;stroke-miterlimit:2;"><rect id="Artboard19" x="0" y="0" width="7.2" height="7.2" style="fill:none;"/><path d="M1.44,2.64l0,1.92c0,0.065 -0.026,0.125 -0.07,0.17c-0.045,0.044 -0.105,0.07 -0.17,0.07c-0.065,-0 -0.125,-0.026 -0.17,-0.07c-0.044,-0.045 -0.07,-0.105 -0.07,-0.17l0,-1.92c0,-0.065 0.026,-0.125 0.07,-0.17c0.045,-0.044 0.105,-0.07 0.17,-0.07c0.065,-0 0.125,0.026 0.17,0.07c0.044,0.045 0.07,0.105 0.07,0.17Zm0.96,-2.16c-0.065,-0 -0.125,0.026 -0.17,0.07c-0.044,0.045 -0.07,0.105 -0.07,0.17l0,5.76c0,0.065 0.026,0.125 0.07,0.17c0.045,0.044 0.105,0.07 0.17,0.07c0.065,-0 0.125,-0.026 0.17,-0.07c0.044,-0.045 0.07,-0.105 0.07,-0.17l0,-5.76c0,-0.065 -0.026,-0.125 -0.07,-0.17c-0.045,-0.044 -0.105,-0.07 -0.17,-0.07Zm1.2,0.96c-0.065,-0 -0.125,0.026 -0.17,0.07c-0.044,0.045 -0.07,0.105 -0.07,0.17l0,3.84c0,0.065 0.026,0.125 0.07,0.17c0.045,0.044 0.105,0.07 0.17,0.07c0.065,-0 0.125,-0.026 0.17,-0.07c0.044,-0.045 0.07,-0.105 0.07,-0.17l0,-3.84c0,-0.065 -0.026,-0.125 -0.07,-0.17c-0.045,-0.044 -0.105,-0.07 -0.17,-0.07Zm1.2,0.96c-0.065,-0 -0.125,0.026 -0.17,0.07c-0.044,0.045 -0.07,0.105 -0.07,0.17l0,1.92c0,0.065 0.026,0.125 0.07,0.17c0.045,0.044 0.105,0.07 0.17,0.07c0.065,-0 0.125,-0.026 0.17,-0.07c0.044,-0.045 0.07,-0.105 0.07,-0.17l0,-1.92c0,-0.065 -0.026,-0.125 -0.07,-0.17c-0.045,-0.044 -0.105,-0.07 -0.17,-0.07Zm1.2,-0.48c-0.065,-0 -0.125,0.026 -0.17,0.07c-0.044,0.045 -0.07,0.105 -0.07,0.17l0,2.88c0,0.065 0.026,0.125 0.07,0.17c0.045,0.044 0.105,0.07 0.17,0.07c0.065,-0 0.125,-0.026 0.17,-0.07c0.044,-0.045 0.07,-0.105 0.07,-0.17l0,-2.88c0,-0.065 -0.026,-0.125 -0.07,-0.17c-0.045,-0.044 -0.105,-0.07 -0.17,-0.07Z" style="fill:#fff;fill-rule:nonzero;"/><g id="g523"></g><g id="g5231" serif:id="g523"></g><g id="g213"></g><g id="g241"></g><g id="g297"></g><g id="g327"></g><g id="g364"></g><g id="g392"></g></svg>