<?xml version="1.0" encoding="UTF-8" standalone="no"?><!DOCTYPE svg PUBLIC "-//W3C//DTD SVG 1.1//EN" "http://www.w3.org/Graphics/SVG/1.1/DTD/svg11.dtd"><svg width="100%" height="100%" viewBox="0 0 24 24" version="1.1" xmlns="http://www.w3.org/2000/svg" xmlns:xlink="http://www.w3.org/1999/xlink" xml:space="preserve" xmlns:serif="http://www.serif.com/" style="fill-rule:evenodd;clip-rule:evenodd;stroke-linecap:round;stroke-linejoin:round;"><rect id="Artboard1" x="0" y="0" width="23.005" height="23.005" style="fill:none;"/><clipPath id="_clip1"><rect x="0" y="0" width="23.005" height="23.005"/></clipPath><g clip-path="url(#_clip1)"><g><g><path d="M18.675,11.081c0,-4.195 -3.4,-7.595 -7.594,-7.595c-4.195,0 -7.595,3.4 -7.595,7.595c0,4.194 3.4,7.594 7.595,7.594" style="fill:none;fill-rule:nonzero;stroke:#fff;stroke-width:1.37px;"/><path d="M15.848,14.456c-0.769,-0 -1.392,0.726 -1.392,1.622c-0,1.623 1.645,3.098 2.531,3.441c0.886,-0.343 2.532,-1.818 2.532,-3.441c-0,-0.896 -0.623,-1.622 -1.392,-1.622c-0.471,-0 -0.888,0.272 -1.14,0.689c-0.252,-0.417 -0.668,-0.689 -1.139,-0.689Z" style="fill:none;fill-rule:nonzero;stroke:#fff;stroke-width:1.37px;"/><path d="M11.081,13.19c1.165,0 2.109,-0.944 2.109,-2.109c0,-1.165 -0.944,-2.11 -2.109,-2.11c-1.165,0 -2.11,0.945 -2.11,2.11c0,1.165 0.945,2.109 2.11,2.109Z" style="fill:none;fill-rule:nonzero;stroke:#fff;stroke-width:1.37px;stroke-linecap:butt;stroke-linejoin:miter;"/></g><rect x="10.55" y="11.04" width="22.737" height="22.737" style="fill:none;"/></g></g></svg>