<?xml version="1.0" encoding="UTF-8" standalone="no"?><!DOCTYPE svg PUBLIC "-//W3C//DTD SVG 1.1//EN" "http://www.w3.org/Graphics/SVG/1.1/DTD/svg11.dtd"><svg width="100%" height="100%" viewBox="-1 -0.5 9 9" version="1.1" xmlns="http://www.w3.org/2000/svg" xmlns:xlink="http://www.w3.org/1999/xlink" xml:space="preserve" xmlns:serif="http://www.serif.com/" style="fill-rule:evenodd;clip-rule:evenodd;stroke-linejoin:round;stroke-miterlimit:2;"><rect id="Artboard19" x="0" y="0" width="7.2" height="7.2" style="fill:none;"/><path d="M6.53,1.63l-0.96,-0.96c-0.023,-0.022 -0.049,-0.04 -0.078,-0.052c-0.029,-0.012 -0.061,-0.018 -0.092,-0.018c-0.032,-0 -0.063,0.006 -0.092,0.018c-0.029,0.012 -0.056,0.03 -0.078,0.052l-2.88,2.88c-0.022,0.023 -0.04,0.049 -0.052,0.078c-0.012,0.029 -0.018,0.061 -0.018,0.092l-0,0.96c-0,0.064 0.025,0.125 0.07,0.17c0.045,0.045 0.106,0.07 0.17,0.07l0.96,0c0.031,0 0.063,-0.006 0.092,-0.018c0.029,-0.012 0.055,-0.03 0.078,-0.052l2.88,-2.88c0.022,-0.022 0.04,-0.049 0.052,-0.078c0.012,-0.029 0.018,-0.06 0.018,-0.092c0,-0.031 -0.006,-0.063 -0.018,-0.092c-0.012,-0.029 -0.03,-0.055 -0.052,-0.078Zm-3.149,2.81l-0.621,0l-0,-0.621l1.92,-1.92l0.621,0.621l-1.92,1.92Zm2.259,-2.259l-0.621,-0.621l0.381,-0.381l0.621,0.621l-0.381,0.381Zm0.72,1.539l-0,2.4c-0,0.127 -0.051,0.249 -0.141,0.34c-0.09,0.09 -0.212,0.14 -0.339,0.14l-4.8,0c-0.127,0 -0.249,-0.05 -0.34,-0.14c-0.09,-0.091 -0.14,-0.213 -0.14,-0.34l-0,-4.8c-0,-0.127 0.05,-0.249 0.14,-0.339c0.091,-0.09 0.213,-0.141 0.34,-0.141l2.4,0c0.064,0 0.125,0.025 0.17,0.07c0.045,0.045 0.07,0.106 0.07,0.17c-0,0.064 -0.025,0.125 -0.07,0.17c-0.045,0.045 -0.106,0.07 -0.17,0.07l-2.4,0l-0,4.8l4.8,0l-0,-2.4c-0,-0.064 0.025,-0.125 0.07,-0.17c0.045,-0.045 0.106,-0.07 0.17,-0.07c0.064,0 0.125,0.025 0.17,0.07c0.045,0.045 0.07,0.106 0.07,0.17Z" style="fill:#fff;fill-rule:nonzero;"/><g id="g523"></g><g id="g5231" serif:id="g523"></g><g id="g213"></g><g id="g241"></g><g id="g297"></g><g id="g327"></g><g id="g364"></g><g id="g392"></g></svg>